{
	"asset":{
		"generator":"Khronos glTF Blender I/O v4.1.62",
		"version":"2.0"
	},
	"scene":0,
	"scenes":[
		{
			"name":"Scene",
			"nodes":[
				43
			]
		}
	],
	"nodes":[
		{
			"name":"leg_front_left_toe_end",
			"rotation":[
				3.4272676430191495e-07,
				4.818040792997635e-07,
				3.923970837149682e-07,
				1
			],
			"translation":[
				2.1492269297596067e-08,
				3.000004768371582,
				-7.356475180131383e-07
			]
		},
		{
			"children":[
				0
			],
			"name":"leg_front_left_toe",
			"rotation":[
				-0.5128920078277588,
				0.15391387045383453,
				0.15391430258750916,
				0.8303991556167603
			],
			"scale":[
				1,
				0.9999999403953552,
				1.0000001192092896
			],
			"translation":[
				1.1920928955078125e-07,
				7.673577785491943,
				3.5762786865234375e-06
			]
		},
		{
			"children":[
				1
			],
			"name":"leg_front_left_ankle",
			"rotation":[
				-0.09718281030654907,
				0.8976026177406311,
				0.23443269729614258,
				0.36042529344558716
			],
			"scale":[
				1,
				1.0000001192092896,
				1
			],
			"translation":[
				-7.152557373046875e-07,
				10.179325103759766,
				-1.1920928955078125e-07
			]
		},
		{
			"children":[
				2
			],
			"name":"leg_front_left_bot0",
			"rotation":[
				0.054212141782045364,
				-0.9825310111045837,
				0.047399554401636124,
				0.1716017872095108
			],
			"scale":[
				1,
				1.0000003576278687,
				1
			],
			"translation":[
				-6.93630113346444e-07,
				12.65878677368164,
				4.219555194140412e-07
			]
		},
		{
			"children":[
				3
			],
			"name":"leg_front_left_top1",
			"rotation":[
				0.44458824396133423,
				0.7687625288963318,
				-0.037087179720401764,
				0.4582248330116272
			],
			"scale":[
				0.9999998807907104,
				1,
				0.9999998807907104
			],
			"translation":[
				-1.5497207641601562e-06,
				9.968338966369629,
				8.344650268554688e-07
			]
		},
		{
			"children":[
				4
			],
			"name":"leg_front_left_top0",
			"rotation":[
				0.05493904650211334,
				-0.5297582149505615,
				-0.5548516511917114,
				0.6391225457191467
			],
			"translation":[
				0.3312219977378845,
				8.902737617492676,
				1.3279906511306763
			]
		},
		{
			"name":"head0_end",
			"rotation":[
				3.7282006815075874e-08,
				4.48198989033699e-09,
				-1.3969838619232178e-09,
				1
			],
			"scale":[
				1,
				0.9999998807907104,
				1
			],
			"translation":[
				-3.725290298461914e-09,
				11.16751766204834,
				2.8132344596087933e-06
			]
		},
		{
			"children":[
				6
			],
			"name":"head0",
			"rotation":[
				0.7393207550048828,
				0.005404642317444086,
				0.011021262034773827,
				0.6732415556907654
			],
			"translation":[
				-3.68709418552271e-09,
				12.236956596374512,
				2.026627043960616e-06
			]
		},
		{
			"children":[
				7
			],
			"name":"neck1",
			"rotation":[
				-0.07124752551317215,
				-1.901044460739243e-10,
				-3.6228101074620156e-10,
				0.9974586963653564
			],
			"scale":[
				1,
				1,
				0.9999999403953552
			],
			"translation":[
				3.9957721575945016e-09,
				11.12533950805664,
				-4.7673577796558675e-07
			]
		},
		{
			"children":[
				8
			],
			"name":"neck0",
			"rotation":[
				-0.2331489473581314,
				0.001986013725399971,
				0.0034111887216567993,
				0.9724330306053162
			],
			"translation":[
				-1.862645149230957e-08,
				8.75928020477295,
				1.5264959074556828e-07
			]
		},
		{
			"name":"leg_front_right_toe_end",
			"rotation":[
				-1.0214050979518493e-14,
				7.450610794990098e-09,
				7.450577754752885e-08,
				1
			],
			"translation":[
				-1.5145133147598244e-08,
				3.000004291534424,
				-1.251131152457674e-06
			]
		},
		{
			"children":[
				10
			],
			"name":"leg_front_right_toe",
			"rotation":[
				-0.5032845139503479,
				-0.1430494636297226,
				-0.14304964244365692,
				0.840106189250946
			],
			"scale":[
				1,
				1.0000001192092896,
				1
			],
			"translation":[
				2.384185791015625e-07,
				7.782961845397949,
				-1.9073486328125e-06
			]
		},
		{
			"children":[
				11
			],
			"name":"leg_front_right_ankle",
			"rotation":[
				-0.06309463828802109,
				0.8812951445579529,
				0.2075255960226059,
				0.4198465347290039
			],
			"scale":[
				1,
				1.0000001192092896,
				1
			],
			"translation":[
				-5.960464477539062e-07,
				9.122804641723633,
				-4.76837158203125e-07
			]
		},
		{
			"children":[
				12
			],
			"name":"leg_front_right_bot0",
			"rotation":[
				-0.11874066293239594,
				-0.8000980615615845,
				0.04989789053797722,
				0.5858787894248962
			],
			"scale":[
				1.0000001192092896,
				1.0000001192092896,
				1
			],
			"translation":[
				7.767739589326084e-07,
				13.806986808776855,
				1.4335419109556824e-06
			]
		},
		{
			"children":[
				13
			],
			"name":"leg_front_right_top1",
			"rotation":[
				0.43940725922584534,
				-0.8052328824996948,
				0.05022015422582626,
				0.39496734738349915
			],
			"scale":[
				1,
				1.000000238418579,
				1.0000001192092896
			],
			"translation":[
				-2.384185791015625e-07,
				9.754756927490234,
				-5.960464477539063e-08
			]
		},
		{
			"children":[
				14
			],
			"name":"leg_front_right_top0",
			"rotation":[
				0.018855232745409012,
				0.5589694976806641,
				0.5850074291229248,
				0.5873363614082336
			],
			"scale":[
				1,
				1.0000001192092896,
				1.0000001192092896
			],
			"translation":[
				-0.32734841108322144,
				8.871026992797852,
				1.337015151977539
			]
		},
		{
			"children":[
				5,
				9,
				15
			],
			"name":"body_top1",
			"rotation":[
				-0.035338807851076126,
				-0.0028257600497454405,
				-0.0027559990994632244,
				0.9993675947189331
			],
			"scale":[
				1,
				0.9999999403953552,
				1
			],
			"translation":[
				-1.1090149631964863e-11,
				8.802755355834961,
				3.691762685775757e-06
			]
		},
		{
			"children":[
				16
			],
			"name":"body_top0",
			"rotation":[
				-0.021733354777097702,
				1.5900499192866846e-06,
				1.5507952184634632e-06,
				0.9997638463973999
			],
			"scale":[
				1,
				0.9999999403953552,
				0.9999999403953552
			],
			"translation":[
				4.547473508864641e-12,
				8.31864070892334,
				-2.115964889526367e-06
			]
		},
		{
			"name":"tail7_end",
			"rotation":[
				1.490165146833533e-08,
				7.738817942026799e-08,
				5.775291009313399e-11,
				1
			],
			"scale":[
				1,
				1.0000001192092896,
				1.0000001192092896
			],
			"translation":[
				1.3751559890806675e-09,
				3.041339635848999,
				-1.0858143468794879e-06
			]
		},
		{
			"children":[
				18
			],
			"name":"tail7",
			"rotation":[
				-0.07503186166286469,
				-0.023543866351246834,
				0.0019481767667457461,
				0.9969012141227722
			],
			"scale":[
				1,
				0.9999998807907104,
				0.9999999403953552
			],
			"translation":[
				-6.780028343200684e-07,
				3.5427775382995605,
				-1.844717189669609e-06
			]
		},
		{
			"children":[
				19
			],
			"name":"tail6",
			"rotation":[
				0.1113002821803093,
				-0.058439068496227264,
				0.011954717338085175,
				0.9919950366020203
			],
			"scale":[
				0.9999999403953552,
				0.9999999403953552,
				0.9999999403953552
			],
			"translation":[
				-9.704381227493286e-07,
				3.137160539627075,
				2.507586032152176e-06
			]
		},
		{
			"children":[
				20
			],
			"name":"tail5",
			"rotation":[
				0.030652042478322983,
				0.5193580389022827,
				-0.02122281678020954,
				0.8537430763244629
			],
			"scale":[
				0.9999998807907104,
				0.9999998807907104,
				0.9999999403953552
			],
			"translation":[
				8.552032340958249e-06,
				2.7183265686035156,
				-7.884149226811132e-07
			]
		},
		{
			"children":[
				21
			],
			"name":"tail4",
			"rotation":[
				-1.5588011592626572e-07,
				8.561366121284664e-05,
				2.0407605916261673e-07,
				1
			],
			"scale":[
				1,
				1,
				1.0000001192092896
			],
			"translation":[
				-4.913657903671265e-06,
				2.7826850414276123,
				4.6193599700927734e-06
			]
		},
		{
			"children":[
				22
			],
			"name":"tail3",
			"rotation":[
				-0.048060934990644455,
				-0.05172588303685188,
				0.024617351591587067,
				0.9972003698348999
			],
			"scale":[
				1,
				0.9999999403953552,
				1
			],
			"translation":[
				-8.42660665512085e-06,
				2.9280216693878174,
				2.7641654014587402e-06
			]
		},
		{
			"children":[
				23
			],
			"name":"tail2",
			"rotation":[
				-0.0010165252024307847,
				-0.7414078712463379,
				0.0524328388273716,
				0.6690024137496948
			],
			"scale":[
				0.9999999403953552,
				0.9999998807907104,
				0.9999998807907104
			],
			"translation":[
				1.30385160446167e-06,
				6.523890018463135,
				8.83638858795166e-06
			]
		},
		{
			"children":[
				24
			],
			"name":"tail1",
			"rotation":[
				-0.9101492762565613,
				-0.0187561996281147,
				-0.4138224124908447,
				0.0052510956302285194
			],
			"scale":[
				1.0000004768371582,
				0.9999998211860657,
				1
			],
			"translation":[
				-1.1175870895385742e-08,
				3.2956697940826416,
				-3.3438700484111905e-06
			]
		},
		{
			"children":[
				25
			],
			"name":"tail0",
			"rotation":[
				0.9043688774108887,
				-0.007127890828996897,
				-0.0038786937948316336,
				0.4266745448112488
			],
			"scale":[
				0.9999998807907104,
				1,
				0.9999998211860657
			],
			"translation":[
				1.6763806343078613e-08,
				13.733763694763184,
				4.450324922800064e-06
			]
		},
		{
			"children":[
				26
			],
			"name":"pelvis",
			"rotation":[
				-0.2693283259868622,
				-0.005368933081626892,
				0.005274842493236065,
				0.9630190134048462
			],
			"scale":[
				1,
				0.9999998807907104,
				0.9999998211860657
			],
			"translation":[
				-3.4924596548080444e-10,
				9.898746490478516,
				-7.748603820800781e-07
			]
		},
		{
			"name":"leg_hind_left_toe_end",
			"rotation":[
				1.4901914369147562e-08,
				2.8227709663042333e-06,
				1.639126594454865e-07,
				1
			],
			"scale":[
				1,
				0.9999998807907104,
				1
			],
			"translation":[
				-6.090449460316449e-07,
				3.00000262260437,
				-1.2261057236173656e-07
			]
		},
		{
			"children":[
				28
			],
			"name":"leg_hind_left_toe",
			"rotation":[
				-0.5633120536804199,
				0.1564358025789261,
				0.15644162893295288,
				0.7960737347602844
			],
			"scale":[
				1,
				0.9999999403953552,
				1
			],
			"translation":[
				-1.5497207641601562e-06,
				10.298571586608887,
				-4.291534423828125e-06
			]
		},
		{
			"children":[
				29
			],
			"name":"leg_hind_left_ankle",
			"rotation":[
				-0.49758777022361755,
				-0.21879588067531586,
				0.07706253230571747,
				0.8358206748962402
			],
			"scale":[
				1,
				0.9999999403953552,
				1
			],
			"translation":[
				-1.6391277313232422e-07,
				10.991498947143555,
				2.0265579223632812e-06
			]
		},
		{
			"children":[
				30
			],
			"name":"leg_hind_left_bot0",
			"rotation":[
				0.2484729290008545,
				0.012631719931960106,
				-0.0014566660393029451,
				0.9685553908348083
			],
			"scale":[
				1,
				1.0000001192092896,
				1.0000001192092896
			],
			"translation":[
				-4.380099198897369e-07,
				10.082557678222656,
				2.1584555724984966e-06
			]
		},
		{
			"children":[
				31
			],
			"name":"leg_hind_left_top1",
			"rotation":[
				0.3572991192340851,
				0.9003647565841675,
				-0.10381729155778885,
				0.22561615705490112
			],
			"scale":[
				0.9999999403953552,
				0.9999998807907104,
				0.9999998807907104
			],
			"translation":[
				4.76837158203125e-07,
				8.384364128112793,
				2.2649765014648438e-06
			]
		},
		{
			"children":[
				32
			],
			"name":"leg_hind_left_top0",
			"rotation":[
				0.4205642342567444,
				0.6471921801567078,
				-0.6344916820526123,
				0.04108939319849014
			],
			"scale":[
				1,
				1.000000238418579,
				1
			],
			"translation":[
				0.298210084438324,
				9.839140892028809,
				-1.393130898475647
			]
		},
		{
			"name":"leg_hind_right_toe_end",
			"rotation":[
				2.6821578558156034e-07,
				-1.6167327885341365e-06,
				2.533208203203685e-07,
				1
			],
			"translation":[
				1.7666116036707535e-07,
				3.00000262260437,
				-1.4468205336015671e-06
			]
		},
		{
			"children":[
				34
			],
			"name":"leg_hind_right_toe",
			"rotation":[
				-0.5615114569664001,
				-0.10498921573162079,
				-0.10499299317598343,
				0.8140385150909424
			],
			"scale":[
				0.9999998807907104,
				0.9999997615814209,
				0.9999998807907104
			],
			"translation":[
				-2.384185791015625e-07,
				11.315181732177734,
				1.430511474609375e-06
			]
		},
		{
			"children":[
				35
			],
			"name":"leg_hind_right_ankle",
			"rotation":[
				-0.528375506401062,
				0.08306144177913666,
				-0.06540966778993607,
				0.8424023389816284
			],
			"scale":[
				1.0000001192092896,
				1,
				1
			],
			"translation":[
				5.960464477539062e-07,
				10.771247863769531,
				3.2186508178710938e-06
			]
		},
		{
			"children":[
				36
			],
			"name":"leg_hind_right_bot0",
			"rotation":[
				0.2525913417339325,
				0.05551529675722122,
				-0.007107884623110294,
				0.96595299243927
			],
			"scale":[
				1,
				1,
				0.9999999403953552
			],
			"translation":[
				2.952163526970253e-07,
				10.8497314453125,
				-9.783971108845435e-07
			]
		},
		{
			"children":[
				37
			],
			"name":"leg_hind_right_top1",
			"rotation":[
				0.3825780749320984,
				-0.8975401520729065,
				0.1149173229932785,
				0.18668068945407867
			],
			"scale":[
				0.9999999403953552,
				0.9999997615814209,
				0.9999998807907104
			],
			"translation":[
				1.1920928955078125e-06,
				8.818902015686035,
				-6.556510925292969e-07
			]
		},
		{
			"children":[
				38
			],
			"name":"leg_hind_right_top0",
			"rotation":[
				0.4176945090293884,
				-0.6461619138717651,
				0.6334468126296997,
				0.0821656733751297
			],
			"scale":[
				0.9999998807907104,
				0.9999998807907104,
				0.9999998807907104
			],
			"translation":[
				-0.32198408246040344,
				9.84286880493164,
				-1.3747624158859253
			]
		},
		{
			"children":[
				27,
				33,
				39
			],
			"name":"body_bot",
			"rotation":[
				0.999025285243988,
				-2.0519300960586406e-05,
				-2.2191385141923092e-05,
				0.044141631573438644
			],
			"scale":[
				1,
				1,
				1.000015139579773
			],
			"translation":[
				0.0004410733818076551,
				0.9917482733726501,
				-0.095436692237854
			]
		},
		{
			"children":[
				17,
				40
			],
			"name":"body",
			"rotation":[
				0.034225814044475555,
				-1.5705455780334887e-06,
				-1.5705458054071642e-06,
				0.9994141459465027
			],
			"translation":[
				-2.522000067983754e-05,
				-15.149152755737305,
				-10.029090881347656
			]
		},
		{
			"mesh":0,
			"name":"Meshy_AI_Tiger_Cub_Portrait_0513081932_texture",
			"skin":0
		},
		{
			"children":[
				42,
				41
			],
			"name":"rig",
			"rotation":[
				0.7071068286895752,
				0,
				0,
				0.7071068286895752
			]
		}
	],
	"materials":[
		{
			"doubleSided":true,
			"emissiveFactor":[
				1,
				1,
				1
			],
			"emissiveTexture":{
				"index":0
			},
			"name":"Material.001",
			"normalTexture":{
				"index":1
			},
			"pbrMetallicRoughness":{
				"baseColorTexture":{
					"index":2
				},
				"metallicFactor":0,
				"roughnessFactor":0.5
			}
		}
	],
	"meshes":[
		{
			"name":"Meshy_AI_Tiger_Cub_Portrait_0513081932_texture",
			"primitives":[
				{
					"attributes":{
						"POSITION":0,
						"NORMAL":1,
						"TEXCOORD_0":2,
						"JOINTS_0":3,
						"WEIGHTS_0":4
					},
					"indices":5,
					"material":0
				}
			]
		}
	],
	"textures":[
		{
			"sampler":0,
			"source":0
		},
		{
			"sampler":0,
			"source":1
		},
		{
			"sampler":0,
			"source":2
		}
	],
	"images":[
		{
			"mimeType":"image/png",
			"name":"Baked_Emit",
			"uri":"Baked_Emit.png"
		},
		{
			"mimeType":"image/png",
			"name":"normal",
			"uri":"normal.png"
		},
		{
			"mimeType":"image/png",
			"name":"Baked_BaseColor",
			"uri":"Baked_BaseColor.png"
		}
	],
	"skins":[
		{
			"inverseBindMatrices":6,
			"joints":[
				41,
				17,
				16,
				5,
				4,
				3,
				2,
				1,
				0,
				9,
				8,
				7,
				6,
				15,
				14,
				13,
				12,
				11,
				10,
				40,
				27,
				26,
				25,
				24,
				23,
				22,
				21,
				20,
				19,
				18,
				33,
				32,
				31,
				30,
				29,
				28,
				39,
				38,
				37,
				36,
				35,
				34
			],
			"name":"rig"
		}
	],
	"accessors":[
		{
			"bufferView":0,
			"componentType":5126,
			"count":23984,
			"max":[
				11.79631233215332,
				28.668560028076172,
				39.22958755493164
			],
			"min":[
				-11.796311378479004,
				-28.668556213378906,
				-39.229591369628906
			],
			"type":"VEC3"
		},
		{
			"bufferView":1,
			"componentType":5126,
			"count":23984,
			"type":"VEC3"
		},
		{
			"bufferView":2,
			"componentType":5126,
			"count":23984,
			"type":"VEC2"
		},
		{
			"bufferView":3,
			"componentType":5121,
			"count":23984,
			"type":"VEC4"
		},
		{
			"bufferView":4,
			"componentType":5126,
			"count":23984,
			"type":"VEC4"
		},
		{
			"bufferView":5,
			"componentType":5123,
			"count":93984,
			"type":"SCALAR"
		},
		{
			"bufferView":6,
			"componentType":5126,
			"count":42,
			"type":"MAT4"
		}
	],
	"bufferViews":[
		{
			"buffer":0,
			"byteLength":287808,
			"byteOffset":0,
			"target":34962
		},
		{
			"buffer":0,
			"byteLength":287808,
			"byteOffset":287808,
			"target":34962
		},
		{
			"buffer":0,
			"byteLength":191872,
			"byteOffset":575616,
			"target":34962
		},
		{
			"buffer":0,
			"byteLength":95936,
			"byteOffset":767488,
			"target":34962
		},
		{
			"buffer":0,
			"byteLength":383744,
			"byteOffset":863424,
			"target":34962
		},
		{
			"buffer":0,
			"byteLength":187968,
			"byteOffset":1247168,
			"target":34963
		},
		{
			"buffer":0,
			"byteLength":2688,
			"byteOffset":1435136
		}
	],
	"samplers":[
		{
			"magFilter":9729,
			"minFilter":9987
		}
	],
	"buffers":[
		{
			"byteLength":1437824,
			"uri":"Meshy_AI_Tiger_Cub_Portrait_0513081932_texture.bin"
		}
	]
}
