{
	"asset":{
		"generator":"Khronos glTF Blender I/O v4.1.62",
		"version":"2.0"
	},
	"scene":0,
	"scenes":[
		{
			"name":"Scene",
			"nodes":[
				36
			]
		}
	],
	"nodes":[
		{
			"name":"leg_front_left_bot2_end",
			"rotation":[
				2.235178442333563e-08,
				-2.6480603310119477e-07,
				-1.688797368615269e-07,
				1
			],
			"translation":[
				1.996759237954393e-07,
				2.9999992847442627,
				-9.817503041631426e-07
			]
		},
		{
			"children":[
				0
			],
			"name":"leg_front_left_bot2",
			"rotation":[
				-0.5841012597084045,
				0.2016083300113678,
				0.20160827040672302,
				0.7599565386772156
			],
			"scale":[
				1,
				0.9999999403953552,
				0.9999998807907104
			],
			"translation":[
				-4.76837158203125e-07,
				8.46167278289795,
				-7.152557373046875e-07
			]
		},
		{
			"children":[
				1
			],
			"name":"leg_front_left_bot1",
			"rotation":[
				-0.06923986971378326,
				-0.4439835250377655,
				-0.03731871023774147,
				0.8925759792327881
			],
			"scale":[
				0.9999999403953552,
				1,
				0.9999999403953552
			],
			"translation":[
				-3.5762786865234375e-07,
				18.21353530883789,
				1.1920928955078125e-07
			]
		},
		{
			"children":[
				2
			],
			"name":"leg_front_left_bot0",
			"rotation":[
				0.029435381293296814,
				0.17146603763103485,
				0.014884112402796745,
				0.9846377372741699
			],
			"scale":[
				1,
				0.9999999403953552,
				1.0000001192092896
			],
			"translation":[
				-4.057170883697836e-07,
				11.60694408416748,
				2.8946260499651544e-07
			]
		},
		{
			"children":[
				3
			],
			"name":"leg_front_left_top1",
			"rotation":[
				-0.6082677841186523,
				-0.7905824780464172,
				-0.06862572580575943,
				0.01673855073750019
			],
			"scale":[
				1,
				0.9999999403953552,
				1
			],
			"translation":[
				7.450580596923828e-07,
				6.066096782684326,
				1.7881393432617188e-07
			]
		},
		{
			"children":[
				4
			],
			"name":"leg_front_left_top0",
			"rotation":[
				-0.496938019990921,
				-0.5900477766990662,
				-0.5433046817779541,
				0.33123457431793213
			],
			"scale":[
				1.0000001192092896,
				1.0000001192092896,
				0.9999999403953552
			],
			"translation":[
				0.44026100635528564,
				9.1849946975708,
				1.1489812135696411
			]
		},
		{
			"name":"head0_end",
			"rotation":[
				-5.4482367062291814e-08,
				2.607703031287656e-08,
				7.450580596923828e-09,
				1
			],
			"scale":[
				1,
				1,
				1.0000001192092896
			],
			"translation":[
				5.364418029785156e-07,
				18.833454132080078,
				4.76837158203125e-07
			]
		},
		{
			"children":[
				6
			],
			"name":"head0",
			"rotation":[
				0.42662131786346436,
				0.006385152228176594,
				-0.054905183613300323,
				0.9027397036552429
			],
			"scale":[
				0.9999999403953552,
				0.9999999403953552,
				0.9999998211860657
			],
			"translation":[
				-4.172325134277344e-07,
				8.065508842468262,
				1.3224780559539795e-06
			]
		},
		{
			"children":[
				7
			],
			"name":"neck1",
			"rotation":[
				0.04478418081998825,
				-0.07761023938655853,
				-0.1037699356675148,
				0.9905568361282349
			],
			"scale":[
				0.9999999403953552,
				0.9999999403953552,
				0.9999998807907104
			],
			"translation":[
				-5.960464477539063e-08,
				10.525725364685059,
				-8.568167686462402e-07
			]
		},
		{
			"children":[
				8
			],
			"name":"neck0",
			"rotation":[
				-0.21116846799850464,
				0.013962524011731148,
				0.005466565024107695,
				0.9773346781730652
			],
			"translation":[
				-2.9802322387695312e-08,
				9.113739013671875,
				6.984919309616089e-09
			]
		},
		{
			"name":"leg_front_right_bot2_end",
			"rotation":[
				-7.450565497890693e-09,
				-1.2914333069602435e-07,
				-6.953872855319787e-08,
				1
			],
			"translation":[
				4.172273975200369e-07,
				3.0000011920928955,
				-1.978883574338397e-06
			]
		},
		{
			"children":[
				10
			],
			"name":"leg_front_right_bot2",
			"rotation":[
				-0.5716626644134521,
				-0.1854991465806961,
				-0.18549922108650208,
				0.7774200439453125
			],
			"scale":[
				0.9999999403953552,
				1,
				0.9999998211860657
			],
			"translation":[
				4.76837158203125e-07,
				7.205036163330078,
				-3.5762786865234375e-07
			]
		},
		{
			"children":[
				11
			],
			"name":"lleg_front_right_bot1",
			"rotation":[
				-0.0600263886153698,
				-0.7359462976455688,
				-0.12875084578990936,
				0.6619691252708435
			],
			"scale":[
				1,
				1.0000001192092896,
				1.0000001192092896
			],
			"translation":[
				1.341104507446289e-07,
				10.600601196289062,
				-1.7136335372924805e-07
			]
		},
		{
			"children":[
				12
			],
			"name":"leg_front_right_bot0",
			"rotation":[
				0.016752514988183975,
				0.8933621644973755,
				0.04404487833380699,
				0.4468596279621124
			],
			"scale":[
				1,
				1.000000238418579,
				1
			],
			"translation":[
				-8.260940376203507e-08,
				20.331947326660156,
				1.6379635781049728e-07
			]
		},
		{
			"children":[
				13
			],
			"name":"leg_front_right_top1",
			"rotation":[
				-0.6342056393623352,
				0.6952835917472839,
				0.03428603708744049,
				0.3364349603652954
			],
			"scale":[
				0.9999999403953552,
				1,
				1
			],
			"translation":[
				-2.250075340270996e-06,
				6.893654823303223,
				-1.1026859283447266e-06
			]
		},
		{
			"children":[
				14
			],
			"name":"leg_front_right_top0",
			"rotation":[
				-0.7045251131057739,
				0.5281887650489807,
				0.44824570417404175,
				0.1540674865245819
			],
			"scale":[
				0.9999998807907104,
				0.9999999403953552,
				0.9999999403953552
			],
			"translation":[
				-0.47409969568252563,
				9.029838562011719,
				1.1212207078933716
			]
		},
		{
			"children":[
				5,
				9,
				15
			],
			"name":"body_top1",
			"rotation":[
				0.021477248519659042,
				0.008989733643829823,
				0.008738555014133453,
				0.9996907711029053
			],
			"scale":[
				1,
				1.0000001192092896,
				1
			],
			"translation":[
				1.4901161193847656e-08,
				9.023512840270996,
				1.2291129678487778e-06
			]
		},
		{
			"children":[
				16
			],
			"name":"body_top0",
			"rotation":[
				0.02398066781461239,
				-0.026855936273932457,
				-0.024636540561914444,
				0.9990478754043579
			],
			"scale":[
				1.0000001192092896,
				1,
				0.9999999403953552
			],
			"translation":[
				-8.940696716308594e-08,
				8.571227073669434,
				1.2256205081939697e-06
			]
		},
		{
			"name":"tail0_end",
			"rotation":[
				-6.055343533262203e-07,
				1.2991949915885925e-07,
				3.2596292331987797e-09,
				1
			],
			"scale":[
				1,
				0.9999999403953552,
				0.9999999403953552
			],
			"translation":[
				0,
				1.5124518871307373,
				-6.705522537231445e-07
			]
		},
		{
			"children":[
				18
			],
			"name":"tail0",
			"rotation":[
				0.07976693660020828,
				-0.03418571501970291,
				0.02130594104528427,
				0.9959993362426758
			],
			"scale":[
				1,
				0.9999998807907104,
				0.9999998807907104
			],
			"translation":[
				5.662441253662109e-07,
				10.923932075500488,
				9.238719940185547e-07
			]
		},
		{
			"children":[
				19
			],
			"name":"pelvis",
			"rotation":[
				-0.3711838126182556,
				0.05308888852596283,
				-0.05343959107995033,
				0.9254989624023438
			],
			"scale":[
				1,
				1,
				0.9999998807907104
			],
			"translation":[
				2.5893677957355976e-07,
				8.548162460327148,
				-9.74085196503438e-07
			]
		},
		{
			"name":"leg_hind_left_bot2_end",
			"rotation":[
				-3.2037507935456233e-07,
				-5.497132633536239e-07,
				-7.450569938782792e-09,
				1
			],
			"translation":[
				8.038790610953583e-08,
				3.000000238418579,
				9.959121598512866e-07
			]
		},
		{
			"children":[
				21
			],
			"name":"leg_hind_left_bot2",
			"rotation":[
				-0.6257850527763367,
				0.06878576427698135,
				0.0687839686870575,
				0.7739059329032898
			],
			"scale":[
				0.9999998807907104,
				0.9999998807907104,
				0.9999998211860657
			],
			"translation":[
				-2.384185791015625e-07,
				9.815324783325195,
				-2.1457672119140625e-06
			]
		},
		{
			"children":[
				22
			],
			"name":"leg_hind_left_bot1",
			"rotation":[
				-0.2028607279062271,
				-0.1353062093257904,
				0.005620397627353668,
				0.9697980284690857
			],
			"scale":[
				0.9999998211860657,
				0.9999998807907104,
				0.9999999403953552
			],
			"translation":[
				4.023313522338867e-07,
				12.855817794799805,
				2.205371856689453e-06
			]
		},
		{
			"children":[
				23
			],
			"name":"leg_hind_left_bot0",
			"rotation":[
				0.16315998136997223,
				0.03891634941101074,
				0.002493683947250247,
				0.9858286380767822
			],
			"scale":[
				1,
				0.9999999403953552,
				0.9999999403953552
			],
			"translation":[
				-8.272845661849715e-07,
				15.66153335571289,
				1.3903554645366967e-06
			]
		},
		{
			"children":[
				24
			],
			"name":"leg_hind_left_top1",
			"rotation":[
				0.5091255903244019,
				0.8516190052032471,
				0.0545947439968586,
				0.11205223202705383
			],
			"scale":[
				0.9999999403953552,
				0.9999998211860657,
				1
			],
			"translation":[
				-4.76837158203125e-07,
				7.459612846374512,
				3.159046173095703e-06
			]
		},
		{
			"children":[
				25
			],
			"name":"leg_hind_left_top0",
			"rotation":[
				0.41937729716300964,
				0.6014729142189026,
				-0.6053584218025208,
				0.30966782569885254
			],
			"scale":[
				0.9999998211860657,
				0.9999998807907104,
				0.9999998807907104
			],
			"translation":[
				0.43970805406570435,
				8.499382019042969,
				-1.2342091798782349
			]
		},
		{
			"name":"leg_hind_right_bot2_end",
			"rotation":[
				3.7252085860473017e-08,
				7.320149961742572e-07,
				-2.980307201028154e-08,
				1
			],
			"scale":[
				1,
				0.9999998807907104,
				1
			],
			"translation":[
				-2.6202246772299986e-07,
				3,
				-3.060813469346613e-08
			]
		},
		{
			"children":[
				27
			],
			"name":"leg_hind_right_bot2",
			"rotation":[
				-0.5405217409133911,
				-0.2132205218076706,
				-0.2132035195827484,
				0.785440981388092
			],
			"scale":[
				0.9999997615814209,
				0.9999997615814209,
				0.9999998807907104
			],
			"translation":[
				1.2636184692382812e-05,
				8.616894721984863,
				1.1920928955078125e-06
			]
		},
		{
			"children":[
				28
			],
			"name":"leg_hind_right_bot1",
			"rotation":[
				-0.24733994901180267,
				-0.010403403080999851,
				-0.08146645128726959,
				0.965441882610321
			],
			"scale":[
				1,
				1.0000001192092896,
				1
			],
			"translation":[
				-1.049041748046875e-05,
				14.226712226867676,
				2.1457672119140625e-06
			]
		},
		{
			"children":[
				29
			],
			"name":"leg_hind_right_bot0",
			"rotation":[
				0.14916035532951355,
				0.3143346607685089,
				0.02002583257853985,
				0.9373067617416382
			],
			"scale":[
				0.9999999403953552,
				1,
				1
			],
			"translation":[
				-4.732828529085964e-08,
				15.76071834564209,
				3.916444256901741e-06
			]
		},
		{
			"children":[
				30
			],
			"name":"leg_hind_right_top1",
			"rotation":[
				-0.5103809237480164,
				0.8566641807556152,
				0.05457643046975136,
				0.0515686459839344
			],
			"scale":[
				0.9999999403953552,
				1.0000003576278687,
				1.0000001192092896
			],
			"translation":[
				4.76837158203125e-07,
				7.153668403625488,
				-3.5762786865234375e-07
			]
		},
		{
			"children":[
				31
			],
			"name":"leg_hind_right_top0",
			"rotation":[
				0.2971641421318054,
				-0.6050243377685547,
				0.6089401841163635,
				0.41812798380851746
			],
			"scale":[
				0.9999998807907104,
				0.9999998211860657,
				0.9999998211860657
			],
			"translation":[
				-0.43436795473098755,
				8.582601547241211,
				-1.244138479232788
			]
		},
		{
			"children":[
				20,
				26,
				32
			],
			"name":"body_bot",
			"rotation":[
				0.9987867474555969,
				-0.034261517226696014,
				0.03450069949030876,
				0.007809262722730637
			],
			"scale":[
				1.000005841255188,
				1.0000004768371582,
				1.000000238418579
			],
			"translation":[
				0.039585113525390625,
				0.9955751299858093,
				-0.05760856717824936
			]
		},
		{
			"children":[
				17,
				33
			],
			"name":"body",
			"rotation":[
				0.011026740074157715,
				0.03437880799174309,
				0.03437880799174309,
				0.9987565279006958
			],
			"translation":[
				0.9321060180664062,
				-22.79888343811035,
				-13.975717544555664
			]
		},
		{
			"mesh":0,
			"name":"model",
			"skin":0
		},
		{
			"children":[
				35,
				34
			],
			"name":"rig",
			"rotation":[
				0.7071068286895752,
				0,
				0,
				0.7071068286895752
			]
		}
	],
	"materials":[
		{
			"doubleSided":true,
			"name":"tripo_material_5aa3bf6a-ccbc-44f9-a35e-e1991259cc28.001",
			"normalTexture":{
				"index":0
			},
			"pbrMetallicRoughness":{
				"baseColorTexture":{
					"index":1
				},
				"metallicFactor":0,
				"roughnessFactor":0.5
			}
		}
	],
	"meshes":[
		{
			"name":"model",
			"primitives":[
				{
					"attributes":{
						"POSITION":0,
						"NORMAL":1,
						"TEXCOORD_0":2,
						"JOINTS_0":3,
						"WEIGHTS_0":4
					},
					"indices":5,
					"material":0
				}
			]
		}
	],
	"textures":[
		{
			"sampler":0,
			"source":0
		},
		{
			"sampler":0,
			"source":1
		}
	],
	"images":[
		{
			"mimeType":"image/jpeg",
			"name":"NormalGL_5aa3bf6a-ccbc-44f9-a35e-e1991259cc28",
			"uri":"NormalGL_5aa3bf6a-ccbc-44f9-a35e-e1991259cc28.jpg"
		},
		{
			"mimeType":"image/jpeg",
			"name":"Color_5aa3bf6a-ccbc-44f9-a35e-e1991259cc28",
			"uri":"Color_5aa3bf6a-ccbc-44f9-a35e-e1991259cc28.jpg"
		}
	],
	"skins":[
		{
			"inverseBindMatrices":6,
			"joints":[
				34,
				17,
				16,
				5,
				4,
				3,
				2,
				1,
				0,
				9,
				8,
				7,
				6,
				15,
				14,
				13,
				12,
				11,
				10,
				33,
				20,
				19,
				18,
				26,
				25,
				24,
				23,
				22,
				21,
				32,
				31,
				30,
				29,
				28,
				27
			],
			"name":"rig"
		}
	],
	"accessors":[
		{
			"bufferView":0,
			"componentType":5126,
			"count":11781,
			"max":[
				11.641528129577637,
				29.42546272277832,
				38.82998275756836
			],
			"min":[
				-11.91507339477539,
				-29.42546272277832,
				-38.478759765625
			],
			"type":"VEC3"
		},
		{
			"bufferView":1,
			"componentType":5126,
			"count":11781,
			"type":"VEC3"
		},
		{
			"bufferView":2,
			"componentType":5126,
			"count":11781,
			"type":"VEC2"
		},
		{
			"bufferView":3,
			"componentType":5121,
			"count":11781,
			"type":"VEC4"
		},
		{
			"bufferView":4,
			"componentType":5126,
			"count":11781,
			"type":"VEC4"
		},
		{
			"bufferView":5,
			"componentType":5123,
			"count":59538,
			"type":"SCALAR"
		},
		{
			"bufferView":6,
			"componentType":5126,
			"count":35,
			"type":"MAT4"
		}
	],
	"bufferViews":[
		{
			"buffer":0,
			"byteLength":141372,
			"byteOffset":0,
			"target":34962
		},
		{
			"buffer":0,
			"byteLength":141372,
			"byteOffset":141372,
			"target":34962
		},
		{
			"buffer":0,
			"byteLength":94248,
			"byteOffset":282744,
			"target":34962
		},
		{
			"buffer":0,
			"byteLength":47124,
			"byteOffset":376992,
			"target":34962
		},
		{
			"buffer":0,
			"byteLength":188496,
			"byteOffset":424116,
			"target":34962
		},
		{
			"buffer":0,
			"byteLength":119076,
			"byteOffset":612612,
			"target":34963
		},
		{
			"buffer":0,
			"byteLength":2240,
			"byteOffset":731688
		}
	],
	"samplers":[
		{
			"magFilter":9729,
			"minFilter":9987
		}
	],
	"buffers":[
		{
			"byteLength":733928,
			"uri":"model.bin"
		}
	]
}
