{
	"asset":{
		"generator":"Khronos glTF Blender I/O v4.1.62",
		"version":"2.0"
	},
	"scene":0,
	"scenes":[
		{
			"name":"Scene",
			"nodes":[
				43
			]
		}
	],
	"nodes":[
		{
			"name":"leg_front_left_hoof_end",
			"rotation":[
				1.4901189615557087e-08,
				2.2584575987139033e-08,
				9.872019290924072e-08,
				1
			],
			"translation":[
				-2.689687335077906e-07,
				2.300004005432129,
				-5.736579851145507e-07
			]
		},
		{
			"children":[
				0
			],
			"name":"leg_front_left_hoof",
			"rotation":[
				-8.012494845388574e-08,
				0.9821754097938538,
				0.16576646268367767,
				0.08861728012561798
			],
			"scale":[
				1,
				1.0000003576278687,
				1
			],
			"translation":[
				-1.7881393432617188e-07,
				20.422374725341797,
				5.587935447692871e-07
			]
		},
		{
			"children":[
				1
			],
			"name":"leg_front_left_top2",
			"rotation":[
				-0.2858959138393402,
				-0.0114552341401577,
				-0.027728354558348656,
				0.9577909111976624
			],
			"scale":[
				1,
				1.0000001192092896,
				1
			],
			"translation":[
				2.8312206268310547e-07,
				19.937971115112305,
				-3.5762786865234375e-07
			]
		},
		{
			"children":[
				2
			],
			"name":"leg_front_left_top1",
			"rotation":[
				-0.35767871141433716,
				-0.8262763023376465,
				0.06770802289247513,
				0.42982450127601624
			],
			"scale":[
				0.9999998211860657,
				0.999999463558197,
				0.9999998807907104
			],
			"translation":[
				4.76837158203125e-07,
				7.936235427856445,
				-7.152557373046875e-07
			]
		},
		{
			"children":[
				3
			],
			"name":"leg_front_left_top0",
			"rotation":[
				-0.49177515506744385,
				-0.6086410284042358,
				-0.6179224252700806,
				0.07671499252319336
			],
			"scale":[
				1,
				1.0000001192092896,
				1
			],
			"translation":[
				0.3467184007167816,
				9.112256050109863,
				1.3382494449615479
			]
		},
		{
			"name":"trunk10_end",
			"rotation":[
				-9.336508810520172e-08,
				-5.830079317092896e-07,
				1.1734664440155029e-07,
				1
			],
			"translation":[
				-3.5762786865234375e-07,
				2.0488545894622803,
				-2.637505531311035e-06
			]
		},
		{
			"children":[
				5
			],
			"name":"trunk10",
			"rotation":[
				0.19999609887599945,
				0.2070857435464859,
				-0.045571230351924896,
				0.9565774202346802
			],
			"scale":[
				1,
				0.9999998807907104,
				0.9999999403953552
			],
			"translation":[
				-1.7881393432617188e-07,
				4.112484455108643,
				-2.086162567138672e-07
			]
		},
		{
			"children":[
				6
			],
			"name":"trunk9",
			"rotation":[
				0.044754624366760254,
				0.07009948045015335,
				-0.013010646216571331,
				0.9964506030082703
			],
			"scale":[
				1,
				0.9999998807907104,
				1
			],
			"translation":[
				6.556510925292969e-07,
				4.040709972381592,
				1.430511474609375e-06
			]
		},
		{
			"children":[
				7
			],
			"name":"trunk8",
			"rotation":[
				0.04009184613823891,
				0.5996954441070557,
				-0.05045221745967865,
				0.7976294159889221
			],
			"scale":[
				0.9999998211860657,
				0.9999996423721313,
				0.9999998807907104
			],
			"translation":[
				9.51811671257019e-07,
				4.050577640533447,
				2.7865171432495117e-06
			]
		},
		{
			"children":[
				8
			],
			"name":"trunk7",
			"rotation":[
				-0.00791294127702713,
				-0.255817174911499,
				0.011658687144517899,
				0.966622531414032
			],
			"scale":[
				0.9999999403953552,
				0.9999999403953552,
				0.9999998807907104
			],
			"translation":[
				5.513429641723633e-06,
				6.376605987548828,
				-3.606081008911133e-06
			]
		},
		{
			"children":[
				9
			],
			"name":"trunk6",
			"rotation":[
				0.042880650609731674,
				-0.6276565790176392,
				-0.010621704161167145,
				0.7772359251976013
			],
			"scale":[
				0.9999998807907104,
				0.9999997615814209,
				0.9999999403953552
			],
			"translation":[
				1.642853021621704e-06,
				5.361811637878418,
				-1.6130506992340088e-06
			]
		},
		{
			"children":[
				10
			],
			"name":"trunk5",
			"rotation":[
				0.2017328143119812,
				0.04994870349764824,
				0.024959329515695572,
				0.9778476357460022
			],
			"scale":[
				1,
				1,
				0.9999999403953552
			],
			"translation":[
				-1.3783574104309082e-07,
				4.545411586761475,
				-3.501772880554199e-07
			]
		},
		{
			"children":[
				11
			],
			"name":"trunk4",
			"rotation":[
				0.14769800007343292,
				0.03630860149860382,
				0.01821277104318142,
				0.9881980419158936
			],
			"scale":[
				0.9999999403953552,
				1,
				0.9999999403953552
			],
			"translation":[
				-4.76837158203125e-07,
				4.9530487060546875,
				3.662891685962677e-06
			]
		},
		{
			"children":[
				12
			],
			"name":"trunk3",
			"rotation":[
				0.06893153488636017,
				0.04044385999441147,
				0.01784481480717659,
				0.9966415166854858
			],
			"translation":[
				-1.4156103134155273e-07,
				5.635123252868652,
				-1.0302639566361904e-05
			]
		},
		{
			"children":[
				13
			],
			"name":"trunk2",
			"rotation":[
				-0.07575944811105728,
				-0.036719679832458496,
				-0.015901848673820496,
				0.9963229298591614
			],
			"scale":[
				1,
				0.9999998807907104,
				0.9999999403953552
			],
			"translation":[
				-3.7997961044311523e-07,
				7.046154975891113,
				4.783389158546925e-06
			]
		},
		{
			"children":[
				14
			],
			"name":"trunk1",
			"rotation":[
				0.2988622784614563,
				0.022202827036380768,
				0.014924073591828346,
				0.9539211988449097
			],
			"scale":[
				1.0000001192092896,
				1,
				1
			],
			"translation":[
				-7.078051567077637e-08,
				10.724125862121582,
				-3.333378117531538e-06
			]
		},
		{
			"children":[
				15
			],
			"name":"head0",
			"rotation":[
				0.11745922267436981,
				-0.005234320182353258,
				-0.005314139649271965,
				0.9930497407913208
			],
			"scale":[
				1,
				0.9999999403953552,
				1.0000001192092896
			],
			"translation":[
				2.2410803879324703e-08,
				9.25106143951416,
				-2.6374809749540873e-06
			]
		},
		{
			"name":"leg_front_right_hoof_end",
			"rotation":[
				4.321336461998726e-07,
				-7.683466307639719e-09,
				-9.499484576735995e-08,
				1
			],
			"translation":[
				-4.24715835833922e-08,
				2.3000004291534424,
				1.485682560087298e-06
			]
		},
		{
			"children":[
				17
			],
			"name":"leg_front_right_hoof",
			"rotation":[
				-8.296963471821073e-08,
				-0.9821752905845642,
				-0.16576692461967468,
				0.08861737698316574
			],
			"scale":[
				1,
				1.0000001192092896,
				0.9999999403953552
			],
			"translation":[
				-2.980232238769531e-07,
				20.4223575592041,
				-1.2442469596862793e-06
			]
		},
		{
			"children":[
				18
			],
			"name":"leg_front_right_top2",
			"rotation":[
				-0.28589603304862976,
				0.011454787105321884,
				0.02772822231054306,
				0.9577909111976624
			],
			"scale":[
				1,
				1.0000001192092896,
				0.9999999403953552
			],
			"translation":[
				1.6391277313232422e-07,
				19.93796730041504,
				-8.344650268554688e-07
			]
		},
		{
			"children":[
				19
			],
			"name":"leg_front_right_top1",
			"rotation":[
				-0.3535621464252472,
				0.8256208300590515,
				-0.06804553419351578,
				0.4344120919704437
			],
			"scale":[
				0.9999999403953552,
				0.9999997615814209,
				1
			],
			"translation":[
				2.384185791015625e-07,
				7.867199420928955,
				1.6689300537109375e-06
			]
		},
		{
			"children":[
				20
			],
			"name":"leg_front_right_top0",
			"rotation":[
				-0.49293920397758484,
				0.6085406541824341,
				0.6178205609321594,
				0.0706188827753067
			],
			"scale":[
				1.0000001192092896,
				1.0000003576278687,
				1.0000001192092896
			],
			"translation":[
				-0.34360331296920776,
				9.111236572265625,
				1.3410422801971436
			]
		},
		{
			"children":[
				4,
				16,
				21
			],
			"name":"body_top1",
			"rotation":[
				-0.030941441655158997,
				-0.0027003330178558826,
				-0.0027415123768150806,
				0.9995138049125671
			],
			"scale":[
				1,
				1,
				0.9999999403953552
			],
			"translation":[
				8.381903171539307e-09,
				9.410430908203125,
				4.819332389160991e-06
			]
		},
		{
			"children":[
				22
			],
			"name":"body_top0",
			"rotation":[
				0.05351816862821579,
				0.002637697383761406,
				0.002801829017698765,
				0.9985595345497131
			],
			"scale":[
				1,
				0.9999999403953552,
				0.9999999403953552
			],
			"translation":[
				0,
				8.815038681030273,
				6.556510925292969e-07
			]
		},
		{
			"name":"tail3_end",
			"rotation":[
				-1.1757949280877256e-08,
				-7.561175863202152e-08,
				-4.656613428188905e-10,
				1
			],
			"scale":[
				0.9999999403953552,
				0.9999999403953552,
				0.9999999403953552
			],
			"translation":[
				-1.2516975402832031e-06,
				3.5591440200805664,
				3.6954879760742188e-06
			]
		},
		{
			"children":[
				24
			],
			"name":"tail3",
			"rotation":[
				0.06667201220989227,
				0.017526032403111458,
				0.012693442404270172,
				0.997540295124054
			],
			"translation":[
				-1.7881393432617188e-07,
				8.718719482421875,
				-4.678964614868164e-06
			]
		},
		{
			"children":[
				25
			],
			"name":"tail2",
			"rotation":[
				0.018719419836997986,
				-0.983190655708313,
				-0.028665151447057724,
				0.17934346199035645
			],
			"scale":[
				1.0000001192092896,
				1,
				1
			],
			"translation":[
				4.302826710045338e-06,
				5.254278182983398,
				-1.1119373084511608e-05
			]
		},
		{
			"children":[
				26
			],
			"name":"tail1",
			"rotation":[
				0.00601170351728797,
				-0.3157607913017273,
				0.031180821359157562,
				0.9483073949813843
			],
			"scale":[
				0.9999999403953552,
				0.9999999403953552,
				0.9999999403953552
			],
			"translation":[
				-1.1816620826721191e-05,
				1.6079317331314087,
				6.418675184249878e-06
			]
		},
		{
			"children":[
				27
			],
			"name":"tail0",
			"rotation":[
				-0.028438102453947067,
				-0.9160769581794739,
				0.22809334099292755,
				0.3285845220088959
			],
			"scale":[
				0.9999999403953552,
				0.9999999403953552,
				0.9999998807907104
			],
			"translation":[
				6.51925802230835e-08,
				19.21926498413086,
				1.0796356946229935e-06
			]
		},
		{
			"children":[
				28
			],
			"name":"pelvis",
			"rotation":[
				-0.5023967623710632,
				-0.007739907130599022,
				0.007506691850721836,
				0.8645700216293335
			],
			"translation":[
				0,
				10.952093124389648,
				6.377696990966797e-06
			]
		},
		{
			"name":"leg_hind_left_hoof_end",
			"rotation":[
				-4.355209739514976e-07,
				3.725175279356563e-09,
				1.5443025347394723e-07,
				1
			],
			"translation":[
				-1.2969701401743805e-07,
				4.400004863739014,
				1.4796504501646268e-06
			]
		},
		{
			"children":[
				30
			],
			"name":"leg_hind_left_hoof",
			"rotation":[
				3.97244633631999e-07,
				-0.9143378734588623,
				0.11626792699098587,
				0.3879021108150482
			],
			"scale":[
				0.9999998807907104,
				0.9999999403953552,
				1.0000001192092896
			],
			"translation":[
				1.6689300537109375e-06,
				15.520957946777344,
				-2.384185791015625e-06
			]
		},
		{
			"children":[
				31
			],
			"name":"leg_hind_left_top2",
			"rotation":[
				0.17734169960021973,
				-0.3233397305011749,
				-0.03412002697587013,
				0.9288902878761292
			],
			"scale":[
				1,
				0.9999998807907104,
				1
			],
			"translation":[
				9.08970832824707e-07,
				21.618244171142578,
				1.2516975402832031e-06
			]
		},
		{
			"children":[
				32
			],
			"name":"leg_hind_left_top1",
			"rotation":[
				0.4275309145450592,
				0.8614071607589722,
				0.028839504346251488,
				0.2726963758468628
			],
			"scale":[
				0.9999998211860657,
				0.9999995827674866,
				0.9999998807907104
			],
			"translation":[
				-1.6689300537109375e-06,
				8.132631301879883,
				-1.1920928955078125e-06
			]
		},
		{
			"children":[
				33
			],
			"name":"leg_hind_left_top0",
			"rotation":[
				0.44499364495277405,
				0.6303199529647827,
				-0.6113202571868896,
				0.17596875131130219
			],
			"scale":[
				1,
				1.0000001192092896,
				1
			],
			"translation":[
				0.38807472586631775,
				10.910943031311035,
				-1.3066482543945312
			]
		},
		{
			"name":"leg_hind_right_hoof_end",
			"rotation":[
				-4.355209739514976e-07,
				-3.725175279356563e-09,
				-1.5443025347394723e-07,
				1
			],
			"translation":[
				1.2969701401743805e-07,
				4.400004863739014,
				1.4796504501646268e-06
			]
		},
		{
			"children":[
				35
			],
			"name":"leg_hind_right_hoof",
			"rotation":[
				3.97244633631999e-07,
				0.9143378734588623,
				-0.11626792699098587,
				0.3879021108150482
			],
			"scale":[
				0.9999998807907104,
				0.9999999403953552,
				1.0000001192092896
			],
			"translation":[
				-1.6689300537109375e-06,
				15.520957946777344,
				-2.384185791015625e-06
			]
		},
		{
			"children":[
				36
			],
			"name":"leg_hind_right_top2",
			"rotation":[
				0.17734169960021973,
				0.3233397305011749,
				0.03412002697587013,
				0.9288902878761292
			],
			"scale":[
				1,
				0.9999998807907104,
				1
			],
			"translation":[
				-9.08970832824707e-07,
				21.618244171142578,
				1.2516975402832031e-06
			]
		},
		{
			"children":[
				37
			],
			"name":"leg_hind_right_top1",
			"rotation":[
				0.4275309145450592,
				-0.8614071607589722,
				-0.028839504346251488,
				0.2726963758468628
			],
			"scale":[
				0.9999998211860657,
				0.9999995827674866,
				0.9999998807907104
			],
			"translation":[
				1.6689300537109375e-06,
				8.132631301879883,
				-1.1920928955078125e-06
			]
		},
		{
			"children":[
				38
			],
			"name":"leg_hind_right_top0",
			"rotation":[
				0.44499364495277405,
				-0.6303199529647827,
				0.6113202571868896,
				0.17596875131130219
			],
			"scale":[
				1,
				1.0000001192092896,
				1
			],
			"translation":[
				-0.38807472586631775,
				10.910943031311035,
				-1.3066482543945312
			]
		},
		{
			"children":[
				29,
				34,
				39
			],
			"name":"body_bot",
			"rotation":[
				-0.9998894333839417,
				0,
				0,
				0.01486921776086092
			],
			"scale":[
				1,
				0.9999998807907104,
				1.0000001192092896
			],
			"translation":[
				0,
				0.9993767738342285,
				-0.026237130165100098
			]
		},
		{
			"children":[
				23,
				40
			],
			"name":"body",
			"rotation":[
				-0.03015989065170288,
				0,
				0,
				0.9995450973510742
			],
			"translation":[
				0,
				-17.349008560180664,
				-20.42852020263672
			]
		},
		{
			"mesh":0,
			"name":"model",
			"skin":0
		},
		{
			"children":[
				42,
				41
			],
			"name":"rig",
			"rotation":[
				0.7071068286895752,
				0,
				0,
				0.7071068286895752
			]
		}
	],
	"materials":[
		{
			"doubleSided":true,
			"name":"tripo_material_e6e9e02e-bfaa-4c48-967c-9ef14d30ea64.001",
			"normalTexture":{
				"index":0
			},
			"pbrMetallicRoughness":{
				"baseColorTexture":{
					"index":1
				},
				"metallicFactor":0,
				"roughnessFactor":0.5
			}
		}
	],
	"meshes":[
		{
			"name":"model",
			"primitives":[
				{
					"attributes":{
						"POSITION":0,
						"NORMAL":1,
						"TEXCOORD_0":2,
						"JOINTS_0":3,
						"WEIGHTS_0":4
					},
					"indices":5,
					"material":0
				}
			]
		}
	],
	"textures":[
		{
			"sampler":0,
			"source":0
		},
		{
			"sampler":0,
			"source":1
		}
	],
	"images":[
		{
			"mimeType":"image/jpeg",
			"name":"NormalGL_e6e9e02e-bfaa-4c48-967c-9ef14d30ea64",
			"uri":"NormalGL_e6e9e02e-bfaa-4c48-967c-9ef14d30ea64.jpg"
		},
		{
			"mimeType":"image/jpeg",
			"name":"Color_e6e9e02e-bfaa-4c48-967c-9ef14d30ea64",
			"uri":"Color_e6e9e02e-bfaa-4c48-967c-9ef14d30ea64.jpg"
		}
	],
	"skins":[
		{
			"inverseBindMatrices":6,
			"joints":[
				41,
				23,
				22,
				4,
				3,
				2,
				1,
				0,
				16,
				15,
				14,
				13,
				12,
				11,
				10,
				9,
				8,
				7,
				6,
				5,
				21,
				20,
				19,
				18,
				17,
				40,
				29,
				28,
				27,
				26,
				25,
				24,
				34,
				33,
				32,
				31,
				30,
				39,
				38,
				37,
				36,
				35
			],
			"name":"rig"
		}
	],
	"accessors":[
		{
			"bufferView":0,
			"componentType":5126,
			"count":11837,
			"max":[
				16.869714736938477,
				27.898950576782227,
				38.01789093017578
			],
			"min":[
				-16.3585205078125,
				-28.025056838989258,
				-38.01788330078125
			],
			"type":"VEC3"
		},
		{
			"bufferView":1,
			"componentType":5126,
			"count":11837,
			"type":"VEC3"
		},
		{
			"bufferView":2,
			"componentType":5126,
			"count":11837,
			"type":"VEC2"
		},
		{
			"bufferView":3,
			"componentType":5121,
			"count":11837,
			"type":"VEC4"
		},
		{
			"bufferView":4,
			"componentType":5126,
			"count":11837,
			"type":"VEC4"
		},
		{
			"bufferView":5,
			"componentType":5123,
			"count":59535,
			"type":"SCALAR"
		},
		{
			"bufferView":6,
			"componentType":5126,
			"count":42,
			"type":"MAT4"
		}
	],
	"bufferViews":[
		{
			"buffer":0,
			"byteLength":142044,
			"byteOffset":0,
			"target":34962
		},
		{
			"buffer":0,
			"byteLength":142044,
			"byteOffset":142044,
			"target":34962
		},
		{
			"buffer":0,
			"byteLength":94696,
			"byteOffset":284088,
			"target":34962
		},
		{
			"buffer":0,
			"byteLength":47348,
			"byteOffset":378784,
			"target":34962
		},
		{
			"buffer":0,
			"byteLength":189392,
			"byteOffset":426132,
			"target":34962
		},
		{
			"buffer":0,
			"byteLength":119070,
			"byteOffset":615524,
			"target":34963
		},
		{
			"buffer":0,
			"byteLength":2688,
			"byteOffset":734596
		}
	],
	"samplers":[
		{
			"magFilter":9729,
			"minFilter":9987
		}
	],
	"buffers":[
		{
			"byteLength":737284,
			"uri":"model.bin"
		}
	]
}
