{
	"asset":{
		"generator":"Khronos glTF Blender I/O v4.1.62",
		"version":"2.0"
	},
	"scene":0,
	"scenes":[
		{
			"name":"Scene",
			"nodes":[
				36
			]
		}
	],
	"nodes":[
		{
			"name":"leg_front_left_bot2_end",
			"rotation":[
				2.235181639775874e-08,
				3.029127810805221e-07,
				3.1292444191421964e-07,
				1
			],
			"translation":[
				-9.53614289755933e-08,
				3.0000033378601074,
				-1.2336259942458128e-06
			]
		},
		{
			"children":[
				0
			],
			"name":"leg_front_left_bot2",
			"rotation":[
				-0.6025503873825073,
				0.06972511857748032,
				0.06972544640302658,
				0.7919657826423645
			],
			"scale":[
				1,
				0.9999998807907104,
				0.9999998807907104
			],
			"translation":[
				5.960464477539062e-07,
				7.571657657623291,
				-2.384185791015625e-07
			]
		},
		{
			"children":[
				1
			],
			"name":"leg_front_left_bot1",
			"rotation":[
				-0.09778628498315811,
				0.6265236735343933,
				0.09487473964691162,
				0.7674013376235962
			],
			"scale":[
				0.9999999403953552,
				1,
				0.9999999403953552
			],
			"translation":[
				-5.876645445823669e-07,
				11.800222396850586,
				2.60770320892334e-07
			]
		},
		{
			"children":[
				2
			],
			"name":"leg_front_left_bot0",
			"rotation":[
				0.049675583839416504,
				-0.7046390175819397,
				-0.04655995965003967,
				0.7062919735908508
			],
			"scale":[
				0.9999999403953552,
				0.9999998807907104,
				0.9999998807907104
			],
			"translation":[
				5.670050313710817e-07,
				15.198830604553223,
				-3.0254477678681724e-07
			]
		},
		{
			"children":[
				3
			],
			"name":"leg_front_left_top1",
			"rotation":[
				-0.4533317983150482,
				-0.6263461112976074,
				-0.04139014333486557,
				0.6328251957893372
			],
			"scale":[
				0.9999999403953552,
				0.9999998807907104,
				1
			],
			"translation":[
				-1.1920928955078125e-07,
				4.931621551513672,
				-5.960464477539062e-07
			]
		},
		{
			"children":[
				4
			],
			"name":"leg_front_left_top0",
			"rotation":[
				0.7588903307914734,
				0.43663492798805237,
				0.44920170307159424,
				0.17791400849819183
			],
			"scale":[
				0.9999998807907104,
				0.9999995827674866,
				0.9999999403953552
			],
			"translation":[
				0.24096941947937012,
				9.262887954711914,
				1.3310439586639404
			]
		},
		{
			"name":"head0_end",
			"rotation":[
				-3.725290298461914e-08,
				-2.7939677238464355e-08,
				-3.725290298461914e-08,
				1
			],
			"translation":[
				7.152557373046875e-07,
				15.878467559814453,
				2.384185791015625e-07
			]
		},
		{
			"children":[
				6
			],
			"name":"head0",
			"rotation":[
				0.48310354351997375,
				0.15491707623004913,
				0.1518850326538086,
				0.8482586145401001
			],
			"scale":[
				0.9999999403953552,
				0.9999999403953552,
				1
			],
			"translation":[
				0,
				10.086331367492676,
				-5.662441253662109e-07
			]
		},
		{
			"children":[
				7
			],
			"name":"neck1",
			"rotation":[
				0.031428221613168716,
				-0.08031342923641205,
				-0.09573951363563538,
				0.9916632175445557
			],
			"scale":[
				0.9999999403953552,
				0.9999998807907104,
				0.9999999403953552
			],
			"translation":[
				-2.980232238769531e-07,
				10.474058151245117,
				-1.4156103134155273e-07
			]
		},
		{
			"children":[
				8
			],
			"name":"neck0",
			"rotation":[
				-0.1032760739326477,
				0.05590391531586647,
				0.05541398376226425,
				0.9915332198143005
			],
			"translation":[
				-1.564621925354004e-07,
				9.551051139831543,
				-1.1380761861801147e-06
			]
		},
		{
			"name":"leg_front_right_bot2_end",
			"rotation":[
				-1.4901173628345532e-08,
				-1.2790161463271943e-07,
				-1.6887985054836463e-07,
				1
			],
			"translation":[
				-5.0659082262427546e-08,
				3.0000011920928955,
				5.609584832200198e-07
			]
		},
		{
			"children":[
				10
			],
			"name":"leg_front_right_bot2",
			"rotation":[
				-0.5823384523391724,
				-0.232066810131073,
				-0.23206648230552673,
				0.7437554001808167
			],
			"scale":[
				0.9999999403953552,
				0.9999998807907104,
				0.9999998807907104
			],
			"translation":[
				1.1920928955078125e-06,
				9.343453407287598,
				1.0728836059570312e-06
			]
		},
		{
			"children":[
				11
			],
			"name":"lleg_front_right_bot1",
			"rotation":[
				-0.004520929418504238,
				0.6346350312232971,
				0.07566751539707184,
				0.7690854668617249
			],
			"scale":[
				0.9999999403953552,
				1.0000001192092896,
				0.9999999403953552
			],
			"translation":[
				-3.5762786865234375e-07,
				11.162214279174805,
				-9.5367431640625e-07
			]
		},
		{
			"children":[
				12
			],
			"name":"leg_front_right_bot0",
			"rotation":[
				-0.03908074274659157,
				-0.350353866815567,
				-0.026065882295370102,
				0.9354386329650879
			],
			"scale":[
				1,
				1,
				0.9999999403953552
			],
			"translation":[
				8.715755939192604e-08,
				13.515470504760742,
				8.942588465288281e-07
			]
		},
		{
			"children":[
				13
			],
			"name":"leg_front_right_top1",
			"rotation":[
				-0.4789479672908783,
				0.8655112385749817,
				0.06439178436994553,
				0.13173019886016846
			],
			"scale":[
				1,
				0.9999999403953552,
				1
			],
			"translation":[
				-3.5762786865234375e-07,
				5.9031219482421875,
				4.76837158203125e-07
			]
		},
		{
			"children":[
				14
			],
			"name":"leg_front_right_top0",
			"rotation":[
				-0.4477037191390991,
				0.6116746664047241,
				0.6134587526321411,
				0.22154879570007324
			],
			"scale":[
				0.9999999403953552,
				0.9999999403953552,
				1
			],
			"translation":[
				-0.4202302396297455,
				9.463810920715332,
				1.2759393453598022
			]
		},
		{
			"children":[
				5,
				9,
				15
			],
			"name":"body_top1",
			"rotation":[
				-0.013878443278372288,
				0.013089464046061039,
				0.01308263186365366,
				0.9997323751449585
			],
			"translation":[
				2.9802322387695312e-08,
				9.602619171142578,
				2.682209014892578e-07
			]
		},
		{
			"children":[
				16
			],
			"name":"body_top0",
			"rotation":[
				-0.01616663858294487,
				-0.016990795731544495,
				-0.016447845846414566,
				0.9995896220207214
			],
			"translation":[
				-1.043081283569336e-07,
				9.112186431884766,
				2.1979212760925293e-07
			]
		},
		{
			"name":"tail0_end",
			"rotation":[
				-2.1158486163130874e-07,
				5.029141902923584e-08,
				2.7939675018018306e-09,
				1
			],
			"scale":[
				1,
				0.9999999403953552,
				1
			],
			"translation":[
				-2.086162567138672e-07,
				3.916588306427002,
				-1.4379620552062988e-06
			]
		},
		{
			"children":[
				18
			],
			"name":"tail0",
			"rotation":[
				1.4744000509381294e-07,
				6.426125764846802e-08,
				-3.259629011154175e-09,
				1
			],
			"scale":[
				1,
				1,
				1.0000001192092896
			],
			"translation":[
				-2.9802322387695312e-08,
				7.833180904388428,
				-6.660819053649902e-06
			]
		},
		{
			"children":[
				19
			],
			"name":"pelvis",
			"rotation":[
				-0.15114326775074005,
				-0.028432099148631096,
				0.024532200768589973,
				0.9877983331680298
			],
			"scale":[
				0.9999999403953552,
				0.9999999403953552,
				0.9999999403953552
			],
			"translation":[
				-0.31819599866867065,
				10.792611122131348,
				1.354759931564331
			]
		},
		{
			"name":"leg_hind_left_bot2_end",
			"rotation":[
				3.3279252420470584e-07,
				1.4497558709081204e-07,
				3.228587956982665e-07,
				1
			],
			"translation":[
				-1.1968040780629963e-07,
				3.0000035762786865,
				1.0023809409176465e-06
			]
		},
		{
			"children":[
				21
			],
			"name":"leg_hind_left_bot2",
			"rotation":[
				-0.5669558048248291,
				0.2491208165884018,
				0.24912011623382568,
				0.7446066737174988
			],
			"scale":[
				1,
				1,
				0.9999999403953552
			],
			"translation":[
				3.5762786865234375e-07,
				9.603105545043945,
				0
			]
		},
		{
			"children":[
				22
			],
			"name":"leg_hind_left_bot1",
			"rotation":[
				-0.24193570017814636,
				0.36656007170677185,
				0.14155802130699158,
				0.8871653079986572
			],
			"scale":[
				0.9999999403953552,
				1.000000238418579,
				1
			],
			"translation":[
				5.513429641723633e-07,
				13.516536712646484,
				1.1920928955078125e-07
			]
		},
		{
			"children":[
				23
			],
			"name":"leg_hind_left_bot0",
			"rotation":[
				0.11608459055423737,
				-0.6689148545265198,
				0.04294189438223839,
				0.7329620122909546
			],
			"scale":[
				0.9999998807907104,
				0.9999998807907104,
				0.9999999403953552
			],
			"translation":[
				-5.303938337419822e-07,
				14.183121681213379,
				1.5031523616926279e-06
			]
		},
		{
			"children":[
				24
			],
			"name":"leg_hind_left_top1",
			"rotation":[
				0.4032495617866516,
				0.8614701628684998,
				-0.05530368536710739,
				0.3036453127861023
			],
			"scale":[
				1.0000001192092896,
				0.9999997615814209,
				0.9999999403953552
			],
			"translation":[
				9.5367431640625e-07,
				4.264140605926514,
				-2.384185791015625e-07
			]
		},
		{
			"children":[
				25
			],
			"name":"leg_hind_left_top0",
			"rotation":[
				-0.5046347975730896,
				-0.665923535823822,
				0.5491641759872437,
				0.017561860382556915
			],
			"scale":[
				1,
				1.0000001192092896,
				1
			],
			"translation":[
				4.470348358154297e-08,
				10.934268951416016,
				3.4570693969726562e-06
			]
		},
		{
			"name":"leg_hind_right_bot2_end",
			"rotation":[
				3.1789170407137135e-07,
				3.740816225672461e-07,
				3.3030906365638657e-07,
				1
			],
			"translation":[
				-2.2715266823070124e-07,
				3.0000035762786865,
				7.609124850205262e-07
			]
		},
		{
			"children":[
				27
			],
			"name":"leg_hind_right_bot2",
			"rotation":[
				-0.48427754640579224,
				-0.08134733885526657,
				-0.08134684711694717,
				0.8673180341720581
			],
			"scale":[
				1,
				1.0000001192092896,
				1.0000001192092896
			],
			"translation":[
				1.1920928955078125e-07,
				10.430371284484863,
				1.0728836059570312e-06
			]
		},
		{
			"children":[
				28
			],
			"name":"leg_hind_right_bot1",
			"rotation":[
				-0.20999693870544434,
				0.42382991313934326,
				0.09483503550291061,
				0.8759428262710571
			],
			"translation":[
				-8.344650268554688e-07,
				11.174318313598633,
				-1.9073486328125e-06
			]
		},
		{
			"children":[
				29
			],
			"name":"leg_hind_right_bot0",
			"rotation":[
				0.011790401302278042,
				-0.3293350338935852,
				-0.020705105736851692,
				0.9439125061035156
			],
			"scale":[
				1,
				1,
				0.9999999403953552
			],
			"translation":[
				-8.559436537325382e-08,
				15.968507766723633,
				-3.819695848505944e-07
			]
		},
		{
			"children":[
				30
			],
			"name":"leg_hind_right_top1",
			"rotation":[
				0.47512370347976685,
				-0.7998775243759155,
				-0.05028674378991127,
				0.3632144033908844
			],
			"scale":[
				1,
				0.9999998211860657,
				1
			],
			"translation":[
				0,
				6.1531572341918945,
				-1.9073486328125e-06
			]
		},
		{
			"children":[
				31
			],
			"name":"leg_hind_right_top0",
			"rotation":[
				0.5952886939048767,
				-0.6223960518836975,
				0.5043339133262634,
				0.06246546283364296
			],
			"scale":[
				0.9999998807907104,
				0.9999995827674866,
				0.9999999403953552
			],
			"translation":[
				-0.7284131050109863,
				10.881784439086914,
				0.09785665571689606
			]
		},
		{
			"children":[
				20,
				26,
				32
			],
			"name":"body_bot",
			"rotation":[
				0.9921771883964539,
				-0.01437362376600504,
				0.0034537354949861765,
				0.123959481716156
			],
			"scale":[
				0.9999999403953552,
				1,
				0.9999992251396179
			],
			"translation":[
				0.03220474720001221,
				0.9886989593505859,
				-0.10629383474588394
			]
		},
		{
			"children":[
				17,
				33
			],
			"name":"body",
			"rotation":[
				0.024782748892903328,
				0.008844176307320595,
				0.008844176307320595,
				0.9996146559715271
			],
			"translation":[
				1.957122802734375,
				-20.0495662689209,
				-14.486233711242676
			]
		},
		{
			"mesh":0,
			"name":"model",
			"skin":0
		},
		{
			"children":[
				35,
				34
			],
			"name":"rig",
			"rotation":[
				0.7071068286895752,
				0,
				0,
				0.7071068286895752
			]
		}
	],
	"materials":[
		{
			"doubleSided":true,
			"name":"tripo_material_06502e18-3731-4047-a78c-eb0cc0566dad.001",
			"normalTexture":{
				"index":0
			},
			"pbrMetallicRoughness":{
				"baseColorTexture":{
					"index":1
				},
				"metallicFactor":0,
				"roughnessFactor":0.5
			}
		}
	],
	"meshes":[
		{
			"name":"model",
			"primitives":[
				{
					"attributes":{
						"POSITION":0,
						"NORMAL":1,
						"TEXCOORD_0":2,
						"JOINTS_0":3,
						"WEIGHTS_0":4
					},
					"indices":5,
					"material":0
				}
			]
		}
	],
	"textures":[
		{
			"sampler":0,
			"source":0
		},
		{
			"sampler":0,
			"source":1
		}
	],
	"images":[
		{
			"bufferView":6,
			"mimeType":"image/jpeg",
			"name":"NormalGL_06502e18-3731-4047-a78c-eb0cc0566dad"
		},
		{
			"bufferView":7,
			"mimeType":"image/jpeg",
			"name":"Color_06502e18-3731-4047-a78c-eb0cc0566dad"
		}
	],
	"skins":[
		{
			"inverseBindMatrices":6,
			"joints":[
				34,
				17,
				16,
				5,
				4,
				3,
				2,
				1,
				0,
				9,
				8,
				7,
				6,
				15,
				14,
				13,
				12,
				11,
				10,
				33,
				20,
				19,
				18,
				26,
				25,
				24,
				23,
				22,
				21,
				32,
				31,
				30,
				29,
				28,
				27
			],
			"name":"rig"
		}
	],
	"accessors":[
		{
			"bufferView":0,
			"componentType":5126,
			"count":11901,
			"max":[
				12.57143783569336,
				27.595701217651367,
				40.759925842285156
			],
			"min":[
				-10.119467735290527,
				-27.785749435424805,
				-41.26467514038086
			],
			"type":"VEC3"
		},
		{
			"bufferView":1,
			"componentType":5126,
			"count":11901,
			"type":"VEC3"
		},
		{
			"bufferView":2,
			"componentType":5126,
			"count":11901,
			"type":"VEC2"
		},
		{
			"bufferView":3,
			"componentType":5121,
			"count":11901,
			"type":"VEC4"
		},
		{
			"bufferView":4,
			"componentType":5126,
			"count":11901,
			"type":"VEC4"
		},
		{
			"bufferView":5,
			"componentType":5123,
			"count":59544,
			"type":"SCALAR"
		},
		{
			"bufferView":8,
			"componentType":5126,
			"count":35,
			"type":"MAT4"
		}
	],
	"bufferViews":[
		{
			"buffer":0,
			"byteLength":142812,
			"byteOffset":0,
			"target":34962
		},
		{
			"buffer":0,
			"byteLength":142812,
			"byteOffset":142812,
			"target":34962
		},
		{
			"buffer":0,
			"byteLength":95208,
			"byteOffset":285624,
			"target":34962
		},
		{
			"buffer":0,
			"byteLength":47604,
			"byteOffset":380832,
			"target":34962
		},
		{
			"buffer":0,
			"byteLength":190416,
			"byteOffset":428436,
			"target":34962
		},
		{
			"buffer":0,
			"byteLength":119088,
			"byteOffset":618852,
			"target":34963
		},
		{
			"buffer":0,
			"byteLength":112752,
			"byteOffset":737940
		},
		{
			"buffer":0,
			"byteLength":216610,
			"byteOffset":850692
		},
		{
			"buffer":0,
			"byteLength":2240,
			"byteOffset":1067304
		}
	],
	"samplers":[
		{
			"magFilter":9729,
			"minFilter":9987
		}
	],
	"buffers":[
		{
			"byteLength":1069544,
			"uri":"data:application/octet-stream;base64,"
		}
	]
}
