{
	"asset":{
		"generator":"Khronos glTF Blender I/O v4.1.62",
		"version":"2.0"
	},
	"scene":0,
	"scenes":[
		{
			"name":"Scene",
			"nodes":[
				43
			]
		}
	],
	"nodes":[
		{
			"name":"leg_front_left_toe_end",
			"rotation":[
				6.804277329292355e-14,
				3.0454265242951806e-07,
				3.1292444191421964e-07,
				1
			],
			"translation":[
				-8.612369128968567e-08,
				3.000005006790161,
				-2.8426256903912872e-08
			]
		},
		{
			"children":[
				0
			],
			"name":"leg_front_left_toe",
			"rotation":[
				-0.4343755841255188,
				0.07688909769058228,
				0.07688924670219421,
				0.8941442370414734
			],
			"scale":[
				1,
				1,
				1.0000001192092896
			],
			"translation":[
				2.980232238769531e-07,
				6.364667892456055,
				3.159046173095703e-06
			]
		},
		{
			"children":[
				1
			],
			"name":"leg_front_left_ankle",
			"rotation":[
				-0.17933997511863708,
				0.8160152435302734,
				0.30316275358200073,
				0.4583107829093933
			],
			"scale":[
				0.9999999403953552,
				0.9999997019767761,
				0.9999999403953552
			],
			"translation":[
				-7.152557373046875e-07,
				15.110602378845215,
				-1.7881393432617188e-07
			]
		},
		{
			"children":[
				2
			],
			"name":"leg_front_left_bot0",
			"rotation":[
				0.14533154666423798,
				-0.8492667078971863,
				-0.22103531658649445,
				0.4569116234779358
			],
			"scale":[
				0.9999999403953552,
				0.9999999403953552,
				1
			],
			"translation":[
				2.980232238769531e-07,
				11.768990516662598,
				1.0132789611816406e-06
			]
		},
		{
			"children":[
				3
			],
			"name":"leg_front_left_top1",
			"rotation":[
				-0.4044056534767151,
				-0.8123069405555725,
				-0.1609506756067276,
				0.3882116973400116
			],
			"translation":[
				-4.76837158203125e-07,
				9.171223640441895,
				-7.152557373046875e-07
			]
		},
		{
			"children":[
				4
			],
			"name":"leg_front_left_top0",
			"rotation":[
				0.6034130454063416,
				0.48348143696784973,
				0.621730625629425,
				0.12485722452402115
			],
			"scale":[
				0.9999998807907104,
				0.9999997615814209,
				0.9999998807907104
			],
			"translation":[
				0.19434303045272827,
				9.638949394226074,
				1.3495501279830933
			]
		},
		{
			"name":"head0_end",
			"rotation":[
				-1.192384075920927e-07,
				1.1175871783564162e-08,
				6.984920419839113e-10,
				1
			],
			"scale":[
				1,
				0.9999999403953552,
				0.9999999403953552
			],
			"translation":[
				-1.7881393432617188e-07,
				9.602300643920898,
				7.070600986480713e-06
			]
		},
		{
			"children":[
				6
			],
			"name":"head0",
			"rotation":[
				0.606792151927948,
				0.014269212260842323,
				0.021615896373987198,
				0.7944384217262268
			],
			"scale":[
				0.9999999403953552,
				1.0000001192092896,
				1.0000001192092896
			],
			"translation":[
				4.470348358154297e-08,
				7.697091579437256,
				1.2604868970811367e-06
			]
		},
		{
			"children":[
				7
			],
			"name":"neck1",
			"rotation":[
				0.057137347757816315,
				-0.0028896089643239975,
				-0.005772830918431282,
				0.9983454346656799
			],
			"scale":[
				1,
				1.0000001192092896,
				0.9999999403953552
			],
			"translation":[
				0,
				9.996646881103516,
				1.0891235433518887e-06
			]
		},
		{
			"children":[
				8
			],
			"name":"neck0",
			"rotation":[
				-0.2289293110370636,
				-0.00365273654460907,
				-0.009252969175577164,
				0.9733922481536865
			],
			"scale":[
				0.9999998807907104,
				1,
				0.9999999403953552
			],
			"translation":[
				1.7881393432617188e-07,
				10.116944313049316,
				-1.9189901649951935e-06
			]
		},
		{
			"name":"leg_front_right_toe_end",
			"rotation":[
				-4.4703462265260896e-08,
				2.7380889378036954e-07,
				2.2351740369686013e-07,
				1
			],
			"translation":[
				-2.262268026242964e-07,
				2.999999523162842,
				-3.909104862032109e-08
			]
		},
		{
			"children":[
				10
			],
			"name":"leg_front_right_toe",
			"rotation":[
				-0.4186191260814667,
				-0.13193486630916595,
				-0.13193456828594208,
				0.8887882232666016
			],
			"scale":[
				1,
				1.0000001192092896,
				0.9999999403953552
			],
			"translation":[
				5.960464477539062e-07,
				6.045319557189941,
				2.384185791015625e-07
			]
		},
		{
			"children":[
				11
			],
			"name":"leg_front_right_ankle",
			"rotation":[
				-0.03955304995179176,
				-0.9214048981666565,
				-0.33933785557746887,
				0.1851983219385147
			],
			"scale":[
				1.0000001192092896,
				0.9999997615814209,
				1
			],
			"translation":[
				5.662441253662109e-07,
				14.368311882019043,
				-4.637986421585083e-07
			]
		},
		{
			"children":[
				12
			],
			"name":"leg_front_right_bot0",
			"rotation":[
				0.03949316218495369,
				0.9924622178077698,
				0.11574248969554901,
				0.00792090967297554
			],
			"scale":[
				1,
				1.0000001192092896,
				1
			],
			"translation":[
				8.801532658253564e-08,
				11.575573921203613,
				1.031289230013499e-06
			]
		},
		{
			"children":[
				13
			],
			"name":"leg_front_right_top1",
			"rotation":[
				-0.31085845828056335,
				0.93644118309021,
				0.10920923203229904,
				0.12049185484647751
			],
			"translation":[
				7.152557373046875e-07,
				9.304214477539062,
				-6.854534149169922e-07
			]
		},
		{
			"children":[
				14
			],
			"name":"leg_front_right_top0",
			"rotation":[
				-0.30516430735588074,
				0.5878371000289917,
				0.7348331212997437,
				0.14609086513519287
			],
			"scale":[
				1,
				1.0000001192092896,
				1
			],
			"translation":[
				-0.3065081834793091,
				9.756500244140625,
				1.3609946966171265
			]
		},
		{
			"children":[
				5,
				9,
				15
			],
			"name":"body_top1",
			"rotation":[
				-0.11851812154054642,
				0.006729796528816223,
				0.006077152211219072,
				0.9929105043411255
			],
			"scale":[
				0.9999999403953552,
				0.9999998807907104,
				0.9999998807907104
			],
			"translation":[
				-9.685640378620519e-08,
				9.90045166015625,
				-5.51570565221482e-07
			]
		},
		{
			"children":[
				16
			],
			"name":"body_top0",
			"rotation":[
				-0.06014741212129593,
				-0.009284945204854012,
				-0.009514113888144493,
				0.998100996017456
			],
			"scale":[
				0.9999998807907104,
				0.9999999403953552,
				0.9999999403953552
			],
			"translation":[
				3.3527612686157227e-08,
				9.477442741394043,
				-4.0582381188869476e-07
			]
		},
		{
			"name":"tail7_end",
			"rotation":[
				-4.6566128730773926e-08,
				2.26311399842416e-07,
				-7.450580596923828e-09,
				1
			],
			"scale":[
				0.9999999403953552,
				1,
				1
			],
			"translation":[
				8.195638656616211e-08,
				1.940361499786377,
				1.1874362826347351e-06
			]
		},
		{
			"children":[
				18
			],
			"name":"tail7",
			"rotation":[
				0.12025182694196701,
				-0.1590915024280548,
				0.03308851271867752,
				0.9793541431427002
			],
			"scale":[
				0.9999999403953552,
				1.0000001192092896,
				1
			],
			"translation":[
				5.243268788035493e-07,
				3.762021064758301,
				1.292783622375282e-06
			]
		},
		{
			"children":[
				19
			],
			"name":"tail6",
			"rotation":[
				0.08930773288011551,
				-0.05111505091190338,
				0.010631191544234753,
				0.9946348071098328
			],
			"scale":[
				1,
				1,
				1.0000001192092896
			],
			"translation":[
				-3.725290298461914e-07,
				4.160274982452393,
				-9.778887033462524e-06
			]
		},
		{
			"children":[
				20
			],
			"name":"tail5",
			"rotation":[
				0.08759099245071411,
				0.2911616861820221,
				-0.02917301096022129,
				0.9522088170051575
			],
			"scale":[
				0.9999999403953552,
				0.9999998807907104,
				1
			],
			"translation":[
				3.2335519790649414e-06,
				4.255047798156738,
				5.885958671569824e-07
			]
		},
		{
			"children":[
				21
			],
			"name":"tail4",
			"rotation":[
				0.024839263409376144,
				-0.8572033047676086,
				0.015206982381641865,
				0.5141539573669434
			],
			"scale":[
				0.9999999403953552,
				0.9999998211860657,
				0.9999999403953552
			],
			"translation":[
				3.1153067538980395e-06,
				4.4506120681762695,
				3.319582901895046e-07
			]
		},
		{
			"children":[
				22
			],
			"name":"tail3",
			"rotation":[
				-0.022443028166890144,
				0.9484274983406067,
				-0.011786160059273243,
				0.3159790635108948
			],
			"scale":[
				0.9999998807907104,
				0.9999997615814209,
				1
			],
			"translation":[
				8.493661880493164e-07,
				5.154911041259766,
				7.078051567077637e-07
			]
		},
		{
			"children":[
				23
			],
			"name":"tail2",
			"rotation":[
				0.05533330515027046,
				-0.37166494131088257,
				-0.018652092665433884,
				0.9265287518501282
			],
			"translation":[
				-4.7497451305389404e-08,
				3.3062994480133057,
				4.2244791984558105e-06
			]
		},
		{
			"children":[
				24
			],
			"name":"tail1",
			"rotation":[
				-0.224440336227417,
				-0.2838224172592163,
				0.007805629167705774,
				0.9322072863578796
			],
			"translation":[
				7.748603820800781e-07,
				4.239175796508789,
				-2.9653310775756836e-06
			]
		},
		{
			"children":[
				25
			],
			"name":"tail0",
			"rotation":[
				-0.4753989577293396,
				0.18148992955684662,
				-0.13751940429210663,
				0.8497915863990784
			],
			"scale":[
				0.9999999403953552,
				0.9999998211860657,
				0.9999998807907104
			],
			"translation":[
				-2.086162567138672e-07,
				12.136910438537598,
				-1.962529495358467e-06
			]
		},
		{
			"children":[
				26
			],
			"name":"pelvis",
			"rotation":[
				-0.0702318623661995,
				-0.029568109661340714,
				0.027343912050127983,
				0.9967173933982849
			],
			"scale":[
				1.0000001192092896,
				0.9999999403953552,
				1.0000001192092896
			],
			"translation":[
				-4.470348358154297e-08,
				10.196940422058105,
				-5.168840289115906e-07
			]
		},
		{
			"name":"leg_hind_left_toe_end",
			"rotation":[
				3.129243282273819e-07,
				3.876623395626666e-07,
				4.76837556107057e-07,
				1
			],
			"scale":[
				1,
				0.9999999403953552,
				1
			],
			"translation":[
				3.0931369110476226e-07,
				3.000002384185791,
				4.455279395187972e-06
			]
		},
		{
			"children":[
				28
			],
			"name":"leg_hind_left_toe",
			"rotation":[
				-0.59906005859375,
				0.04988012835383415,
				0.049879562109708786,
				0.7975907921791077
			],
			"scale":[
				1.0000001192092896,
				0.9999998211860657,
				1
			],
			"translation":[
				6.556510925292969e-07,
				10.098128318786621,
				-1.1920928955078125e-07
			]
		},
		{
			"children":[
				29
			],
			"name":"leg_hind_left_ankle",
			"rotation":[
				-0.3798253834247589,
				0.11914964765310287,
				0.04406718909740448,
				0.9162936806678772
			],
			"translation":[
				-8.344650268554688e-07,
				13.59372329711914,
				1.3113021850585938e-06
			]
		},
		{
			"children":[
				30
			],
			"name":"leg_hind_left_bot0",
			"rotation":[
				0.12808343768119812,
				-0.25505849719047546,
				0.04160336032509804,
				0.9575014710426331
			],
			"scale":[
				1,
				1,
				1.0000001192092896
			],
			"translation":[
				3.725290298461914e-08,
				9.91063117980957,
				-3.2782554626464844e-06
			]
		},
		{
			"children":[
				31
			],
			"name":"leg_hind_left_top1",
			"rotation":[
				0.38284143805503845,
				0.9157653450965881,
				-0.08791409432888031,
				0.08412755280733109
			],
			"scale":[
				1,
				1.000000238418579,
				0.9999999403953552
			],
			"translation":[
				3.5762786865234375e-07,
				7.353604316711426,
				0
			]
		},
		{
			"children":[
				32
			],
			"name":"leg_hind_left_top0",
			"rotation":[
				0.3968835175037384,
				0.6555903553962708,
				-0.6301981806755066,
				0.12463966757059097
			],
			"scale":[
				0.9999999403953552,
				0.9999997615814209,
				0.9999997615814209
			],
			"translation":[
				0.050140172243118286,
				10.262166023254395,
				-2.4318699836730957
			]
		},
		{
			"name":"leg_hind_right_toe_end",
			"rotation":[
				-2.9802256662492255e-08,
				3.613570243032882e-07,
				2.980244673267407e-08,
				1
			],
			"translation":[
				-1.7392210338584846e-07,
				3.000000238418579,
				3.216539425920928e-07
			]
		},
		{
			"children":[
				34
			],
			"name":"leg_hind_right_toe",
			"rotation":[
				-0.5640941858291626,
				-0.17201325297355652,
				-0.17201045155525208,
				0.7890637516975403
			],
			"scale":[
				0.9999998211860657,
				1,
				1
			],
			"translation":[
				-9.5367431640625e-07,
				9.690564155578613,
				1.430511474609375e-06
			]
		},
		{
			"children":[
				35
			],
			"name":"leg_hind_right_ankle",
			"rotation":[
				-0.35609278082847595,
				0.03538478910923004,
				-0.0846492275595665,
				0.9299356937408447
			],
			"scale":[
				0.9999999403953552,
				0.9999999403953552,
				0.9999999403953552
			],
			"translation":[
				5.960464477539062e-07,
				13.092347145080566,
				-2.384185791015625e-06
			]
		},
		{
			"children":[
				36
			],
			"name":"leg_hind_right_bot0",
			"rotation":[
				0.04877704009413719,
				0.3372540771961212,
				-0.06483817845582962,
				0.9379107356071472
			],
			"scale":[
				1.0000001192092896,
				1.0000001192092896,
				1
			],
			"translation":[
				-2.384185791015625e-07,
				10.484143257141113,
				-1.3113021850585938e-06
			]
		},
		{
			"children":[
				37
			],
			"name":"leg_hind_right_top1",
			"rotation":[
				-0.3758171498775482,
				0.9182431697845459,
				-0.10204289853572845,
				0.07195979356765747
			],
			"translation":[
				4.76837158203125e-07,
				7.215644836425781,
				7.152557373046875e-07
			]
		},
		{
			"children":[
				38
			],
			"name":"leg_hind_right_top0",
			"rotation":[
				0.34710630774497986,
				-0.6594675779342651,
				0.6493135094642639,
				0.15169614553451538
			],
			"scale":[
				1.0000001192092896,
				1.0000001192092896,
				0.9999999403953552
			],
			"translation":[
				0.05269445478916168,
				10.265488624572754,
				-2.555755138397217
			]
		},
		{
			"children":[
				27,
				33,
				39
			],
			"name":"body_bot",
			"rotation":[
				0.9967458248138428,
				-0.0009942535543814301,
				0.02151939645409584,
				0.07767682522535324
			],
			"scale":[
				0.9999999403953552,
				1,
				0.9999980926513672
			],
			"translation":[
				0.004623576998710632,
				0.9751079678535461,
				-0.1633647084236145
			]
		},
		{
			"children":[
				17,
				40
			],
			"name":"body",
			"rotation":[
				0.06417327374219894,
				0.011929518543183804,
				0.011929517611861229,
				0.9977961778640747
			],
			"scale":[
				1,
				0.9999999403953552,
				0.9999999403953552
			],
			"translation":[
				0.2611132562160492,
				-12.946682929992676,
				-11.996413230895996
			]
		},
		{
			"mesh":0,
			"name":"Meshy_AI_Majestic_Tiger_0513081643_texture",
			"skin":0
		},
		{
			"children":[
				42,
				41
			],
			"name":"rig",
			"rotation":[
				0.7071068286895752,
				0,
				0,
				0.7071068286895752
			]
		}
	],
	"materials":[
		{
			"doubleSided":true,
			"emissiveFactor":[
				1,
				1,
				1
			],
			"emissiveTexture":{
				"index":0
			},
			"name":"Material.001",
			"normalTexture":{
				"index":1
			},
			"pbrMetallicRoughness":{
				"baseColorTexture":{
					"index":2
				},
				"metallicFactor":0,
				"roughnessFactor":0.5
			}
		}
	],
	"meshes":[
		{
			"name":"Meshy_AI_Majestic_Tiger_0513081643_texture",
			"primitives":[
				{
					"attributes":{
						"POSITION":0,
						"NORMAL":1,
						"TEXCOORD_0":2,
						"JOINTS_0":3,
						"WEIGHTS_0":4
					},
					"indices":5,
					"material":0
				}
			]
		}
	],
	"textures":[
		{
			"sampler":0,
			"source":0
		},
		{
			"sampler":0,
			"source":1
		},
		{
			"sampler":0,
			"source":2
		}
	],
	"images":[
		{
			"mimeType":"image/png",
			"name":"Baked_Emit",
			"uri":"Baked_Emit.png"
		},
		{
			"mimeType":"image/png",
			"name":"normal",
			"uri":"normal.png"
		},
		{
			"mimeType":"image/png",
			"name":"Baked_BaseColor",
			"uri":"Baked_BaseColor.png"
		}
	],
	"skins":[
		{
			"inverseBindMatrices":6,
			"joints":[
				41,
				17,
				16,
				5,
				4,
				3,
				2,
				1,
				0,
				9,
				8,
				7,
				6,
				15,
				14,
				13,
				12,
				11,
				10,
				40,
				27,
				26,
				25,
				24,
				23,
				22,
				21,
				20,
				19,
				18,
				33,
				32,
				31,
				30,
				29,
				28,
				39,
				38,
				37,
				36,
				35,
				34
			],
			"name":"rig"
		}
	],
	"accessors":[
		{
			"bufferView":0,
			"componentType":5126,
			"count":27693,
			"max":[
				9.382223129272461,
				28.494680404663086,
				40.20075225830078
			],
			"min":[
				-9.590797424316406,
				-28.274354934692383,
				-40.12532043457031
			],
			"type":"VEC3"
		},
		{
			"bufferView":1,
			"componentType":5126,
			"count":27693,
			"type":"VEC3"
		},
		{
			"bufferView":2,
			"componentType":5126,
			"count":27693,
			"type":"VEC2"
		},
		{
			"bufferView":3,
			"componentType":5121,
			"count":27693,
			"type":"VEC4"
		},
		{
			"bufferView":4,
			"componentType":5126,
			"count":27693,
			"type":"VEC4"
		},
		{
			"bufferView":5,
			"componentType":5123,
			"count":93645,
			"type":"SCALAR"
		},
		{
			"bufferView":6,
			"componentType":5126,
			"count":42,
			"type":"MAT4"
		}
	],
	"bufferViews":[
		{
			"buffer":0,
			"byteLength":332316,
			"byteOffset":0,
			"target":34962
		},
		{
			"buffer":0,
			"byteLength":332316,
			"byteOffset":332316,
			"target":34962
		},
		{
			"buffer":0,
			"byteLength":221544,
			"byteOffset":664632,
			"target":34962
		},
		{
			"buffer":0,
			"byteLength":110772,
			"byteOffset":886176,
			"target":34962
		},
		{
			"buffer":0,
			"byteLength":443088,
			"byteOffset":996948,
			"target":34962
		},
		{
			"buffer":0,
			"byteLength":187290,
			"byteOffset":1440036,
			"target":34963
		},
		{
			"buffer":0,
			"byteLength":2688,
			"byteOffset":1627328
		}
	],
	"samplers":[
		{
			"magFilter":9729,
			"minFilter":9987
		}
	],
	"buffers":[
		{
			"byteLength":1630016,
			"uri":"Meshy_AI_Majestic_Tiger_0513081643_texture.bin"
		}
	]
}
