{
	"asset":{
		"generator":"Khronos glTF Blender I/O v4.1.62",
		"version":"2.0"
	},
	"scene":0,
	"scenes":[
		{
			"name":"Scene",
			"nodes":[
				43
			]
		}
	],
	"nodes":[
		{
			"name":"leg_front_left_hoof_end",
			"rotation":[
				-2.9802318834981634e-08,
				7.543719249269998e-08,
				1.4933560521512845e-07,
				1
			],
			"translation":[
				3.2931200166785857e-07,
				4.600005149841309,
				3.8299407378872274e-07
			]
		},
		{
			"children":[
				0
			],
			"name":"leg_front_left_hoof",
			"rotation":[
				-9.552447011174081e-08,
				0.955457866191864,
				0.19767948985099792,
				0.21914179623126984
			],
			"scale":[
				0.9999999403953552,
				0.9999997615814209,
				0.9999998807907104
			],
			"translation":[
				-3.5762786865234375e-07,
				14.42757797241211,
				1.1920928955078125e-07
			]
		},
		{
			"children":[
				1
			],
			"name":"leg_front_left_top2",
			"rotation":[
				-0.29077446460723877,
				0.10238155722618103,
				-0.0455092191696167,
				0.9502090215682983
			],
			"scale":[
				1,
				1.0000001192092896,
				1
			],
			"translation":[
				1.6763806343078613e-06,
				23.04043197631836,
				2.0097941160202026e-06
			]
		},
		{
			"children":[
				2
			],
			"name":"leg_front_left_top1",
			"rotation":[
				-0.3099263906478882,
				-0.8370978236198425,
				0.047244843095541,
				0.44830888509750366
			],
			"scale":[
				1,
				0.9999999403953552,
				1
			],
			"translation":[
				-4.76837158203125e-07,
				8.088168144226074,
				-1.430511474609375e-06
			]
		},
		{
			"children":[
				3
			],
			"name":"leg_front_left_top0",
			"rotation":[
				-0.46133509278297424,
				-0.5736765265464783,
				-0.674066960811615,
				0.06081901863217354
			],
			"scale":[
				0.9999999403953552,
				0.9999997615814209,
				0.9999998807907104
			],
			"translation":[
				0.3056531548500061,
				7.929130554199219,
				1.3457773923873901
			]
		},
		{
			"name":"trunk10_end",
			"rotation":[
				-2.7206260710954666e-07,
				4.842877388000488e-08,
				-1.7229467630386353e-08,
				1
			],
			"scale":[
				1,
				0.9999999403953552,
				1
			],
			"translation":[
				-5.960464477539063e-08,
				2.569437265396118,
				2.3581087589263916e-06
			]
		},
		{
			"children":[
				5
			],
			"name":"trunk10",
			"rotation":[
				0.3220456540584564,
				-0.01653909683227539,
				-0.0067147077061235905,
				0.9465558528900146
			],
			"scale":[
				0.9999998807907104,
				1,
				1
			],
			"translation":[
				-8.940696716308594e-08,
				4.4712982177734375,
				-1.3820827007293701e-06
			]
		},
		{
			"children":[
				6
			],
			"name":"trunk9",
			"rotation":[
				0.24580968916416168,
				0.09858175367116928,
				-0.04168862849473953,
				0.963390588760376
			],
			"scale":[
				0.9999999403953552,
				0.9999999403953552,
				0.9999999403953552
			],
			"translation":[
				5.066394805908203e-07,
				8.070011138916016,
				2.4139881134033203e-06
			]
		},
		{
			"children":[
				7
			],
			"name":"trunk8",
			"rotation":[
				0.08459249138832092,
				-0.14109009504318237,
				-0.0026779798790812492,
				0.9863724112510681
			],
			"scale":[
				0.9999999403953552,
				1,
				1
			],
			"translation":[
				1.5345023030022276e-08,
				3.952843189239502,
				-3.7929175960016437e-06
			]
		},
		{
			"children":[
				8
			],
			"name":"trunk7",
			"rotation":[
				0.018506594002246857,
				-0.9996486902236938,
				-0.018972883000969887,
				0.0003022839082404971
			],
			"scale":[
				0.9999998807907104,
				0.9999997615814209,
				1
			],
			"translation":[
				-6.908085197210312e-07,
				4.052779197692871,
				-5.322579454514198e-06
			]
		},
		{
			"children":[
				9
			],
			"name":"trunk6",
			"rotation":[
				-0.0175563283264637,
				0.9483530521392822,
				0.013896587304770947,
				0.316425621509552
			],
			"scale":[
				1.0000001192092896,
				1.0000001192092896,
				1.000000238418579
			],
			"translation":[
				1.4901161193847656e-07,
				4.0031232833862305,
				-2.562999725341797e-06
			]
		},
		{
			"children":[
				10
			],
			"name":"trunk5",
			"rotation":[
				0.2759782075881958,
				0.33037638664245605,
				0.09887124598026276,
				0.8971688747406006
			],
			"scale":[
				1,
				1.0000001192092896,
				1
			],
			"translation":[
				-5.699694156646729e-07,
				5.081345081329346,
				6.192829459905624e-06
			]
		},
		{
			"children":[
				11
			],
			"name":"trunk4",
			"rotation":[
				0.18001589179039001,
				-0.10571175813674927,
				-0.04058019071817398,
				0.9771246314048767
			],
			"scale":[
				0.9999999403953552,
				0.9999999403953552,
				0.9999998211860657
			],
			"translation":[
				9.238719940185547e-07,
				1.9196300506591797,
				-1.1138617992401123e-06
			]
		},
		{
			"children":[
				12
			],
			"name":"trunk3",
			"rotation":[
				-0.28960949182510376,
				0.03580841049551964,
				-0.007688215002417564,
				0.9564439058303833
			],
			"scale":[
				1,
				1.0000001192092896,
				1
			],
			"translation":[
				-7.055730293359375e-07,
				9.790942192077637,
				-4.0059546790871536e-07
			]
		},
		{
			"children":[
				13
			],
			"name":"trunk2",
			"rotation":[
				0.4051969647407532,
				0.018600724637508392,
				0.024870503693819046,
				0.9137017726898193
			],
			"scale":[
				1,
				0.9999999403953552,
				1
			],
			"translation":[
				-2.086162567138672e-07,
				1.8506721258163452,
				4.293397068977356e-07
			]
		},
		{
			"children":[
				14
			],
			"name":"trunk1",
			"rotation":[
				-0.0949682667851448,
				0.02695791982114315,
				0.01655278168618679,
				0.9949775338172913
			],
			"scale":[
				1,
				1.0000001192092896,
				1
			],
			"translation":[
				1.4901161193847656e-08,
				17.747539520263672,
				1.0200310498476028e-06
			]
		},
		{
			"children":[
				15
			],
			"name":"head0",
			"rotation":[
				0.33377328515052795,
				-0.005461316555738449,
				-0.006417015567421913,
				0.9426157474517822
			],
			"translation":[
				-3.213447996586183e-08,
				8.256207466125488,
				4.351270490587922e-06
			]
		},
		{
			"name":"leg_front_right_hoof_end",
			"rotation":[
				2.753475314420939e-07,
				1.8626439057811695e-08,
				-6.705522537231445e-08,
				1
			],
			"translation":[
				4.3362584278838767e-07,
				4.600003719329834,
				-1.0426691687825951e-07
			]
		},
		{
			"children":[
				17
			],
			"name":"leg_front_right_hoof",
			"rotation":[
				-1.5010989784514095e-07,
				-0.9554578065872192,
				-0.19767984747886658,
				0.21914167702198029
			],
			"scale":[
				0.9999998807907104,
				0.9999997615814209,
				0.9999999403953552
			],
			"translation":[
				-1.1920928955078125e-07,
				14.427583694458008,
				-2.0265579223632812e-06
			]
		},
		{
			"children":[
				18
			],
			"name":"leg_front_right_top2",
			"rotation":[
				-0.29077470302581787,
				-0.10238327085971832,
				0.04550865292549133,
				0.9502087831497192
			],
			"scale":[
				1,
				1,
				1.0000001192092896
			],
			"translation":[
				5.960464477539063e-08,
				23.040428161621094,
				-4.936009645462036e-07
			]
		},
		{
			"children":[
				19
			],
			"name":"leg_front_right_top1",
			"rotation":[
				-0.31868964433670044,
				0.8392341136932373,
				-0.046402182430028915,
				0.43814370036125183
			],
			"scale":[
				1,
				0.9999999403953552,
				0.9999998807907104
			],
			"translation":[
				2.384185791015625e-07,
				8.211861610412598,
				2.384185791015625e-07
			]
		},
		{
			"children":[
				20
			],
			"name":"leg_front_right_top0",
			"rotation":[
				-0.45784544944763184,
				0.5742025375366211,
				0.6746849417686462,
				0.07395424693822861
			],
			"translation":[
				-0.3127918541431427,
				7.931504249572754,
				1.3406888246536255
			]
		},
		{
			"children":[
				4,
				16,
				21
			],
			"name":"body_top1",
			"rotation":[
				-0.11532343178987503,
				0.0028912988491356373,
				0.0033972584642469883,
				0.9933179616928101
			],
			"scale":[
				0.9999999403953552,
				1,
				0.9999999403953552
			],
			"translation":[
				1.0244548320770264e-08,
				8.220643043518066,
				1.3787648640573025e-06
			]
		},
		{
			"children":[
				22
			],
			"name":"body_top0",
			"rotation":[
				0.05885540321469307,
				-0.003078962443396449,
				-0.003227806417271495,
				0.9982565641403198
			],
			"scale":[
				1,
				0.9999998211860657,
				1
			],
			"translation":[
				5.032006811234169e-09,
				7.757961273193359,
				4.542347596725449e-06
			]
		},
		{
			"name":"tail3_end",
			"rotation":[
				1.1455267667770386e-07,
				-2.842862159013748e-07,
				2.514570951461792e-08,
				1
			],
			"translation":[
				-5.960464477539063e-08,
				2.6589367389678955,
				2.3245811462402344e-06
			]
		},
		{
			"children":[
				24
			],
			"name":"tail3",
			"rotation":[
				0.12859484553337097,
				0.45244118571281433,
				-0.09427183866500854,
				0.8774242401123047
			],
			"scale":[
				0.9999999403953552,
				1.0000001192092896,
				0.9999999403953552
			],
			"translation":[
				-8.270144462585449e-07,
				5.74729061126709,
				-1.9371509552001953e-07
			]
		},
		{
			"children":[
				25
			],
			"name":"tail2",
			"rotation":[
				-0.02976752445101738,
				-0.4829350709915161,
				0.028951425105333328,
				0.8746710419654846
			],
			"scale":[
				1,
				1.0000001192092896,
				1
			],
			"translation":[
				-7.599592208862305e-07,
				5.527616500854492,
				1.3131648302078247e-06
			]
		},
		{
			"children":[
				26
			],
			"name":"tail1",
			"rotation":[
				-0.017778858542442322,
				0.9949053525924683,
				-0.05305248871445656,
				0.0838610976934433
			],
			"scale":[
				0.9999997615814209,
				0.9999997615814209,
				1
			],
			"translation":[
				2.4796463549137115e-07,
				1.3995386362075806,
				-3.3227934181923047e-07
			]
		},
		{
			"children":[
				27
			],
			"name":"tail0",
			"rotation":[
				0.017571259289979935,
				-0.9831370711326599,
				0.18130576610565186,
				0.016157537698745728
			],
			"scale":[
				1,
				0.9999998807907104,
				1
			],
			"translation":[
				5.8033037930727005e-08,
				21.28461456298828,
				-7.183989509940147e-07
			]
		},
		{
			"children":[
				28
			],
			"name":"pelvis",
			"rotation":[
				-0.5535784363746643,
				-0.009290722198784351,
				0.008999326266348362,
				0.8326966166496277
			],
			"scale":[
				1,
				1,
				0.9999999403953552
			],
			"translation":[
				-3.106833901256323e-09,
				9.400969505310059,
				9.967909591068747e-07
			]
		},
		{
			"name":"leg_hind_left_hoof_end",
			"rotation":[
				-5.961651368124876e-07,
				-6.426112975077558e-08,
				9.854252525087759e-09,
				1
			],
			"translation":[
				-5.362778665585211e-07,
				3.100001335144043,
				-2.5119509245996596e-06
			]
		},
		{
			"children":[
				30
			],
			"name":"leg_hind_left_hoof",
			"rotation":[
				-1.0522684306124575e-06,
				-0.8319580554962158,
				0.13926959037780762,
				0.5370752215385437
			],
			"scale":[
				1,
				1.000000238418579,
				1
			],
			"translation":[
				-2.6226043701171875e-06,
				17.0456600189209,
				8.344650268554688e-07
			]
		},
		{
			"children":[
				31
			],
			"name":"leg_hind_left_top2",
			"rotation":[
				0.17804571986198425,
				-0.38892441987991333,
				-0.04983147606253624,
				0.9025266766548157
			],
			"scale":[
				0.9999999403953552,
				0.9999998211860657,
				1
			],
			"translation":[
				1.4901161193847656e-08,
				21.161983489990234,
				-1.1324882507324219e-06
			]
		},
		{
			"children":[
				32
			],
			"name":"leg_hind_left_top1",
			"rotation":[
				0.42496582865715027,
				0.820041298866272,
				-0.03165304288268089,
				0.38201361894607544
			],
			"scale":[
				1.0000001192092896,
				1,
				1.000000238418579
			],
			"translation":[
				4.76837158203125e-07,
				8.07206916809082,
				2.384185791015625e-06
			]
		},
		{
			"children":[
				33
			],
			"name":"leg_hind_left_top0",
			"rotation":[
				0.46909812092781067,
				0.6249694228172302,
				-0.6052723526954651,
				0.15167653560638428
			],
			"scale":[
				0.9999998807907104,
				0.9999997019767761,
				0.9999998807907104
			],
			"translation":[
				0.38483208417892456,
				9.346744537353516,
				-1.3055297136306763
			]
		},
		{
			"name":"leg_hind_right_hoof_end",
			"rotation":[
				6.033735644450644e-07,
				1.4528568215155246e-07,
				-4.4222775841262774e-07,
				1
			],
			"scale":[
				1,
				0.9999999403953552,
				1
			],
			"translation":[
				1.7988895706366748e-08,
				3.0999984741210938,
				-6.739601303706877e-07
			]
		},
		{
			"children":[
				35
			],
			"name":"leg_hind_right_hoof",
			"rotation":[
				-1.2851102155764238e-06,
				0.8319584727287292,
				-0.13926847279071808,
				0.5370749235153198
			],
			"scale":[
				0.9999999403953552,
				0.9999997019767761,
				0.9999999403953552
			],
			"translation":[
				-2.384185791015625e-07,
				17.045642852783203,
				-1.1324882507324219e-06
			]
		},
		{
			"children":[
				36
			],
			"name":"leg_hind_right_top2",
			"rotation":[
				0.17804573476314545,
				0.388923317193985,
				0.0498315691947937,
				0.9025270938873291
			],
			"scale":[
				1.0000001192092896,
				1,
				1.000000238418579
			],
			"translation":[
				4.6193599700927734e-07,
				21.16196060180664,
				7.748603820800781e-07
			]
		},
		{
			"children":[
				37
			],
			"name":"leg_hind_right_top1",
			"rotation":[
				0.4281454086303711,
				-0.8199146389961243,
				0.03220361843705177,
				0.37867462635040283
			],
			"scale":[
				1,
				1,
				0.9999999403953552
			],
			"translation":[
				-1.430511474609375e-06,
				8.149296760559082,
				2.384185791015625e-06
			]
		},
		{
			"children":[
				38
			],
			"name":"leg_hind_right_top0",
			"rotation":[
				0.4689142107963562,
				-0.6244579553604126,
				0.6047741770744324,
				0.15626917779445648
			],
			"scale":[
				0.9999999403953552,
				1,
				0.9999999403953552
			],
			"translation":[
				-0.3871908187866211,
				9.347517013549805,
				-1.302785873413086
			]
		},
		{
			"children":[
				29,
				34,
				39
			],
			"name":"body_bot",
			"rotation":[
				-0.9999717473983765,
				2.133753241650993e-06,
				2.741978505582665e-06,
				0.007514835335314274
			],
			"scale":[
				0.9999999403953552,
				0.9999999403953552,
				0.9999998807907104
			],
			"translation":[
				4.63454780401662e-05,
				0.9984879493713379,
				-0.04112251475453377
			]
		},
		{
			"children":[
				23,
				40
			],
			"name":"body",
			"rotation":[
				-0.023590702563524246,
				-1.7833596643868077e-07,
				-1.783359948603902e-07,
				0.9997217059135437
			],
			"translation":[
				0.04999716579914093,
				-18.099327087402344,
				-19.91407012939453
			]
		},
		{
			"mesh":0,
			"name":"model",
			"skin":0
		},
		{
			"children":[
				42,
				41
			],
			"name":"rig",
			"rotation":[
				0.7071068286895752,
				0,
				0,
				0.7071068286895752
			]
		}
	],
	"materials":[
		{
			"doubleSided":true,
			"name":"tripo_material_c5ef2e4d-98b8-41da-8c4a-7eee173e946d.001",
			"normalTexture":{
				"index":0
			},
			"pbrMetallicRoughness":{
				"baseColorTexture":{
					"index":1
				},
				"metallicFactor":0,
				"roughnessFactor":0.5
			}
		}
	],
	"meshes":[
		{
			"name":"model",
			"primitives":[
				{
					"attributes":{
						"POSITION":0,
						"NORMAL":1,
						"TEXCOORD_0":2,
						"JOINTS_0":3,
						"WEIGHTS_0":4
					},
					"indices":5,
					"material":0
				}
			]
		}
	],
	"textures":[
		{
			"sampler":0,
			"source":0
		},
		{
			"sampler":0,
			"source":1
		}
	],
	"images":[
		{
			"mimeType":"image/jpeg",
			"name":"NormalGL_c5ef2e4d-98b8-41da-8c4a-7eee173e946d",
			"uri":"NormalGL_c5ef2e4d-98b8-41da-8c4a-7eee173e946d.jpg"
		},
		{
			"mimeType":"image/jpeg",
			"name":"Color_c5ef2e4d-98b8-41da-8c4a-7eee173e946d",
			"uri":"Color_c5ef2e4d-98b8-41da-8c4a-7eee173e946d.jpg"
		}
	],
	"skins":[
		{
			"inverseBindMatrices":6,
			"joints":[
				41,
				23,
				22,
				4,
				3,
				2,
				1,
				0,
				16,
				15,
				14,
				13,
				12,
				11,
				10,
				9,
				8,
				7,
				6,
				5,
				21,
				20,
				19,
				18,
				17,
				40,
				29,
				28,
				27,
				26,
				25,
				24,
				34,
				33,
				32,
				31,
				30,
				39,
				38,
				37,
				36,
				35
			],
			"name":"rig"
		}
	],
	"accessors":[
		{
			"bufferView":0,
			"componentType":5126,
			"count":12029,
			"max":[
				19.141155242919922,
				28.08995819091797,
				36.83034133911133
			],
			"min":[
				-18.625675201416016,
				-28.100261688232422,
				-36.8303337097168
			],
			"type":"VEC3"
		},
		{
			"bufferView":1,
			"componentType":5126,
			"count":12029,
			"type":"VEC3"
		},
		{
			"bufferView":2,
			"componentType":5126,
			"count":12029,
			"type":"VEC2"
		},
		{
			"bufferView":3,
			"componentType":5121,
			"count":12029,
			"type":"VEC4"
		},
		{
			"bufferView":4,
			"componentType":5126,
			"count":12029,
			"type":"VEC4"
		},
		{
			"bufferView":5,
			"componentType":5123,
			"count":59541,
			"type":"SCALAR"
		},
		{
			"bufferView":6,
			"componentType":5126,
			"count":42,
			"type":"MAT4"
		}
	],
	"bufferViews":[
		{
			"buffer":0,
			"byteLength":144348,
			"byteOffset":0,
			"target":34962
		},
		{
			"buffer":0,
			"byteLength":144348,
			"byteOffset":144348,
			"target":34962
		},
		{
			"buffer":0,
			"byteLength":96232,
			"byteOffset":288696,
			"target":34962
		},
		{
			"buffer":0,
			"byteLength":48116,
			"byteOffset":384928,
			"target":34962
		},
		{
			"buffer":0,
			"byteLength":192464,
			"byteOffset":433044,
			"target":34962
		},
		{
			"buffer":0,
			"byteLength":119082,
			"byteOffset":625508,
			"target":34963
		},
		{
			"buffer":0,
			"byteLength":2688,
			"byteOffset":744592
		}
	],
	"samplers":[
		{
			"magFilter":9729,
			"minFilter":9987
		}
	],
	"buffers":[
		{
			"byteLength":747280,
			"uri":"model.bin"
		}
	]
}
